solid OpenSCAD_Model
  facet normal 0 0 -1
    outer loop
      vertex 2.41455e-07 -103.95 0
      vertex 2.62949e-07 -111.375 0
      vertex -63.5544 -57.7751 0
    endloop
  endfacet
  facet normal 0 0 -1
    outer loop
      vertex -39.2787 16.9376 0
      vertex -43.6431 22.9445 0
      vertex 43.6431 22.9445 0
    endloop
  endfacet
  facet normal 0 0 -1
    outer loop
      vertex 63.5544 -57.7751 0
      vertex 43.6431 22.9445 0
      vertex 70.6159 -60.0695 0
    endloop
  endfacet
  facet normal 0 0 -1
    outer loop
      vertex 39.2787 16.9376 0
      vertex -39.2787 16.9376 0
      vertex 43.6431 22.9445 0
    endloop
  endfacet
  facet normal 0 0 -1
    outer loop
      vertex -70.6159 -60.0695 0
      vertex -43.6431 22.9445 0
      vertex -63.5544 -57.7751 0
    endloop
  endfacet
  facet normal 0 0 -1
    outer loop
      vertex -70.6159 -60.0695 0
      vertex -63.5544 -57.7751 0
      vertex 2.62949e-07 -111.375 0
    endloop
  endfacet
  facet normal 0 0 -1
    outer loop
      vertex 63.5544 -57.7751 0
      vertex 2.62949e-07 -111.375 0
      vertex 2.41455e-07 -103.95 0
    endloop
  endfacet
  facet normal 0 0 -1
    outer loop
      vertex 39.2787 16.9376 0
      vertex 43.6431 22.9445 0
      vertex 63.5544 -57.7751 0
    endloop
  endfacet
  facet normal 0 0 -1
    outer loop
      vertex 2.62949e-07 -111.375 0
      vertex 63.5544 -57.7751 0
      vertex 70.6159 -60.0695 0
    endloop
  endfacet
  facet normal 0 0 -1
    outer loop
      vertex -63.5544 -57.7751 0
      vertex -43.6431 22.9445 0
      vertex -39.2787 16.9376 0
    endloop
  endfacet
  facet normal -0.951057 0.309017 0
    outer loop
      vertex -51.9407 -2.59314 28.75
      vertex -43.6431 22.9445 0
      vertex -49.4049 5.21127 12.0134
    endloop
  endfacet
  facet normal -0.951057 0.309017 0
    outer loop
      vertex -70.6159 -60.0695 0
      vertex -70.6159 -60.0695 28.75
      vertex -52.7914 -5.21127 7.15328
    endloop
  endfacet
  facet normal -0.951057 0.309017 0
    outer loop
      vertex -70.6159 -60.0695 0
      vertex -52.7914 -5.21127 7.15328
      vertex -43.6431 22.9445 0
    endloop
  endfacet
  facet normal -0.951057 0.309017 0
    outer loop
      vertex -43.6431 22.9445 0
      vertex -51.9407 -2.59314 28.75
      vertex -43.6431 22.9445 28.75
    endloop
  endfacet
  facet normal -0.951057 0.309017 0
    outer loop
      vertex -52.7914 -5.21127 7.15328
      vertex -70.6159 -60.0695 28.75
      vertex -56.0636 -15.282 28.75
    endloop
  endfacet
  facet normal -0.951057 0.309017 0
    outer loop
      vertex -49.4049 5.21127 12.0134
      vertex -43.6431 22.9445 0
      vertex -52.7914 -5.21127 7.15328
    endloop
  endfacet
  facet normal -0.587785 -0.809017 0
    outer loop
      vertex -70.6159 -60.0695 28.75
      vertex -70.6159 -60.0695 0
      vertex 2.62949e-07 -111.375 0
    endloop
  endfacet
  facet normal -0.587785 -0.809017 0
    outer loop
      vertex 2.62949e-07 -111.375 28.75
      vertex -70.6159 -60.0695 28.75
      vertex 2.62949e-07 -111.375 0
    endloop
  endfacet
  facet normal 0.587785 -0.809017 0
    outer loop
      vertex 2.62949e-07 -111.375 28.75
      vertex 2.62949e-07 -111.375 0
      vertex 70.6159 -60.0695 0
    endloop
  endfacet
  facet normal 0.587785 -0.809017 0
    outer loop
      vertex 70.6159 -60.0695 28.75
      vertex 2.62949e-07 -111.375 28.75
      vertex 70.6159 -60.0695 0
    endloop
  endfacet
  facet normal 0.951057 0.309017 0
    outer loop
      vertex 49.4049 5.21127 12.0134
      vertex 43.6431 22.9445 0
      vertex 43.6431 22.9445 28.75
    endloop
  endfacet
  facet normal 0.951057 0.309017 0
    outer loop
      vertex 52.7914 -5.21127 7.15328
      vertex 43.6431 22.9445 0
      vertex 49.4049 5.21127 12.0134
    endloop
  endfacet
  facet normal 0.951057 0.309017 0
    outer loop
      vertex 70.6159 -60.0695 0
      vertex 43.6431 22.9445 0
      vertex 52.7914 -5.21127 7.15328
    endloop
  endfacet
  facet normal 0.951057 0.309017 0
    outer loop
      vertex 70.6159 -60.0695 28.75
      vertex 70.6159 -60.0695 0
      vertex 56.0636 -15.282 28.75
    endloop
  endfacet
  facet normal 0.951057 0.309017 0
    outer loop
      vertex 51.9407 -2.59314 28.75
      vertex 49.4049 5.21127 12.0134
      vertex 43.6431 22.9445 28.75
    endloop
  endfacet
  facet normal 0.951057 0.309017 0
    outer loop
      vertex 52.7914 -5.21127 7.15328
      vertex 56.0636 -15.282 28.75
      vertex 70.6159 -60.0695 0
    endloop
  endfacet
  facet normal 5.02464e-09 1 0
    outer loop
      vertex -43.6431 22.9445 0
      vertex -43.6431 22.9445 28.75
      vertex 43.6431 22.9445 0
    endloop
  endfacet
  facet normal 5.02464e-09 1 0
    outer loop
      vertex 43.6431 22.9445 0
      vertex -43.6431 22.9445 28.75
      vertex 43.6431 22.9445 28.75
    endloop
  endfacet
  facet normal 6.71906e-09 -1 0
    outer loop
      vertex 39.2787 16.9376 0
      vertex 39.2787 16.9376 28.75
      vertex -39.2787 16.9376 28.75
    endloop
  endfacet
  facet normal 6.71906e-09 -1 0
    outer loop
      vertex -39.2787 16.9376 0
      vertex 39.2787 16.9376 0
      vertex -39.2787 16.9376 28.75
    endloop
  endfacet
  facet normal 0.951057 -0.309017 0
    outer loop
      vertex -39.2787 16.9376 0
      vertex -39.2787 16.9376 28.75
      vertex -45.6247 -2.59314 28.75
    endloop
  endfacet
  facet normal 0.951057 -0.309017 0
    outer loop
      vertex -46.4753 -5.21127 7.15328
      vertex -39.2787 16.9376 0
      vertex -43.0889 5.21127 12.0134
    endloop
  endfacet
  facet normal 0.951057 -0.309017 0
    outer loop
      vertex -43.0889 5.21127 12.0134
      vertex -39.2787 16.9376 0
      vertex -45.6247 -2.59314 28.75
    endloop
  endfacet
  facet normal 0.951057 -0.309017 0
    outer loop
      vertex -63.5544 -57.7751 0
      vertex -39.2787 16.9376 0
      vertex -46.4753 -5.21127 7.15328
    endloop
  endfacet
  facet normal 0.951057 -0.309017 0
    outer loop
      vertex -63.5544 -57.7751 28.75
      vertex -46.4753 -5.21127 7.15328
      vertex -49.7475 -15.282 28.75
    endloop
  endfacet
  facet normal 0.951057 -0.309017 0
    outer loop
      vertex -63.5544 -57.7751 0
      vertex -46.4753 -5.21127 7.15328
      vertex -63.5544 -57.7751 28.75
    endloop
  endfacet
  facet normal -0.951057 -0.309017 0
    outer loop
      vertex 63.5544 -57.7751 28.75
      vertex 49.7475 -15.282 28.75
      vertex 63.5544 -57.7751 0
    endloop
  endfacet
  facet normal -0.951057 -0.309017 0
    outer loop
      vertex 63.5544 -57.7751 0
      vertex 49.7475 -15.282 28.75
      vertex 46.4753 -5.21127 7.15328
    endloop
  endfacet
  facet normal -0.951057 -0.309017 0
    outer loop
      vertex 46.4753 -5.21127 7.15328
      vertex 39.2787 16.9376 0
      vertex 63.5544 -57.7751 0
    endloop
  endfacet
  facet normal -0.951057 -0.309017 0
    outer loop
      vertex 43.0889 5.21127 12.0134
      vertex 45.6247 -2.59314 28.75
      vertex 39.2787 16.9376 28.75
    endloop
  endfacet
  facet normal -0.951057 -0.309017 0
    outer loop
      vertex 43.0889 5.21127 12.0134
      vertex 39.2787 16.9376 28.75
      vertex 39.2787 16.9376 0
    endloop
  endfacet
  facet normal -0.951057 -0.309017 0
    outer loop
      vertex 43.0889 5.21127 12.0134
      vertex 39.2787 16.9376 0
      vertex 46.4753 -5.21127 7.15328
    endloop
  endfacet
  facet normal -0.587785 0.809017 0
    outer loop
      vertex 63.5544 -57.7751 28.75
      vertex 63.5544 -57.7751 0
      vertex 2.41455e-07 -103.95 28.75
    endloop
  endfacet
  facet normal -0.587785 0.809017 0
    outer loop
      vertex 2.41455e-07 -103.95 28.75
      vertex 63.5544 -57.7751 0
      vertex 2.41455e-07 -103.95 0
    endloop
  endfacet
  facet normal 0.587785 0.809017 0
    outer loop
      vertex 2.41455e-07 -103.95 28.75
      vertex 2.41455e-07 -103.95 0
      vertex -63.5544 -57.7751 28.75
    endloop
  endfacet
  facet normal 0.587785 0.809017 0
    outer loop
      vertex -63.5544 -57.7751 28.75
      vertex 2.41455e-07 -103.95 0
      vertex -63.5544 -57.7751 0
    endloop
  endfacet
  facet normal 0 0 1
    outer loop
      vertex -43.6431 22.9445 28.75
      vertex -51.9407 -2.59314 28.75
      vertex -45.6247 -2.59314 28.75
    endloop
  endfacet
  facet normal 0 0 1
    outer loop
      vertex 39.2787 16.9376 28.75
      vertex -43.6431 22.9445 28.75
      vertex -39.2787 16.9376 28.75
    endloop
  endfacet
  facet normal 0 0 1
    outer loop
      vertex -39.2787 16.9376 28.75
      vertex -43.6431 22.9445 28.75
      vertex -45.6247 -2.59314 28.75
    endloop
  endfacet
  facet normal 0 0 1
    outer loop
      vertex 43.6431 22.9445 28.75
      vertex -43.6431 22.9445 28.75
      vertex 39.2787 16.9376 28.75
    endloop
  endfacet
  facet normal 0 0 1
    outer loop
      vertex 51.9407 -2.59314 28.75
      vertex 39.2787 16.9376 28.75
      vertex 45.6247 -2.59314 28.75
    endloop
  endfacet
  facet normal 0 0 1
    outer loop
      vertex 43.6431 22.9445 28.75
      vertex 39.2787 16.9376 28.75
      vertex 51.9407 -2.59314 28.75
    endloop
  endfacet
  facet normal 0 -0.906308 -0.422618
    outer loop
      vertex -49.4049 5.21127 12.0134
      vertex -43.0889 5.21127 12.0134
      vertex -45.6247 -2.59314 28.75
    endloop
  endfacet
  facet normal 0 -0.906308 -0.422618
    outer loop
      vertex -51.9407 -2.59314 28.75
      vertex -49.4049 5.21127 12.0134
      vertex -45.6247 -2.59314 28.75
    endloop
  endfacet
  facet normal 0 -0.422618 0.906308
    outer loop
      vertex -46.4753 -5.21127 7.15328
      vertex -43.0889 5.21127 12.0134
      vertex -49.4049 5.21127 12.0134
    endloop
  endfacet
  facet normal 0 -0.422618 0.906308
    outer loop
      vertex -52.7914 -5.21127 7.15328
      vertex -46.4753 -5.21127 7.15328
      vertex -49.4049 5.21127 12.0134
    endloop
  endfacet
  facet normal 0 0.906308 0.422618
    outer loop
      vertex -46.4753 -5.21127 7.15328
      vertex -52.7914 -5.21127 7.15328
      vertex -49.7475 -15.282 28.75
    endloop
  endfacet
  facet normal 0 0.906308 0.422618
    outer loop
      vertex -49.7475 -15.282 28.75
      vertex -52.7914 -5.21127 7.15328
      vertex -56.0636 -15.282 28.75
    endloop
  endfacet
  facet normal 0 0 1
    outer loop
      vertex -63.5544 -57.7751 28.75
      vertex -70.6159 -60.0695 28.75
      vertex 2.62949e-07 -111.375 28.75
    endloop
  endfacet
  facet normal 0 0 1
    outer loop
      vertex 2.41455e-07 -103.95 28.75
      vertex -63.5544 -57.7751 28.75
      vertex 2.62949e-07 -111.375 28.75
    endloop
  endfacet
  facet normal 0 0 1
    outer loop
      vertex 56.0636 -15.282 28.75
      vertex 49.7475 -15.282 28.75
      vertex 70.6159 -60.0695 28.75
    endloop
  endfacet
  facet normal 0 0 1
    outer loop
      vertex 70.6159 -60.0695 28.75
      vertex 63.5544 -57.7751 28.75
      vertex 2.62949e-07 -111.375 28.75
    endloop
  endfacet
  facet normal 0 0 1
    outer loop
      vertex 63.5544 -57.7751 28.75
      vertex 2.41455e-07 -103.95 28.75
      vertex 2.62949e-07 -111.375 28.75
    endloop
  endfacet
  facet normal 0 0 1
    outer loop
      vertex -56.0636 -15.282 28.75
      vertex -70.6159 -60.0695 28.75
      vertex -63.5544 -57.7751 28.75
    endloop
  endfacet
  facet normal 0 0 1
    outer loop
      vertex -63.5544 -57.7751 28.75
      vertex -49.7475 -15.282 28.75
      vertex -56.0636 -15.282 28.75
    endloop
  endfacet
  facet normal 0 0 1
    outer loop
      vertex 49.7475 -15.282 28.75
      vertex 63.5544 -57.7751 28.75
      vertex 70.6159 -60.0695 28.75
    endloop
  endfacet
  facet normal 0 0.906308 0.422618
    outer loop
      vertex 56.0636 -15.282 28.75
      vertex 52.7914 -5.21127 7.15328
      vertex 49.7475 -15.282 28.75
    endloop
  endfacet
  facet normal 0 0.906308 0.422618
    outer loop
      vertex 49.7475 -15.282 28.75
      vertex 52.7914 -5.21127 7.15328
      vertex 46.4753 -5.21127 7.15328
    endloop
  endfacet
  facet normal 0 -0.422618 0.906308
    outer loop
      vertex 46.4753 -5.21127 7.15328
      vertex 52.7914 -5.21127 7.15328
      vertex 49.4049 5.21127 12.0134
    endloop
  endfacet
  facet normal 0 -0.422618 0.906308
    outer loop
      vertex 43.0889 5.21127 12.0134
      vertex 46.4753 -5.21127 7.15328
      vertex 49.4049 5.21127 12.0134
    endloop
  endfacet
  facet normal 0 -0.906308 -0.422618
    outer loop
      vertex 49.4049 5.21127 12.0134
      vertex 51.9407 -2.59314 28.75
      vertex 45.6247 -2.59314 28.75
    endloop
  endfacet
  facet normal 0 -0.906308 -0.422618
    outer loop
      vertex 43.0889 5.21127 12.0134
      vertex 49.4049 5.21127 12.0134
      vertex 45.6247 -2.59314 28.75
    endloop
  endfacet
endsolid OpenSCAD_Model
