solid OpenSCAD_Model
  facet normal -0.866026 -0.5 0
    outer loop
      vertex -28.3645 4.06737 -2.05
      vertex -29.4098 5.87785 2.05
      vertex -29.4098 5.87785 -2.05
    endloop
  endfacet
  facet normal -0.866026 -0.5 0
    outer loop
      vertex -29.4098 5.87785 2.05
      vertex -28.3645 4.06737 -2.05
      vertex -28.3645 4.06737 2.05
    endloop
  endfacet
  facet normal 0 -1 0
    outer loop
      vertex -43.5453 9.94522 -2.05
      vertex -36.4547 9.94522 2.05
      vertex -43.5453 9.94522 2.05
    endloop
  endfacet
  facet normal 0 -1 -0
    outer loop
      vertex -36.4547 9.94522 2.05
      vertex -43.5453 9.94522 -2.05
      vertex -36.4547 9.94522 -2.05
    endloop
  endfacet
  facet normal 0.951056 -0.309018 0
    outer loop
      vertex -52.2815 2.07912 2.05
      vertex -51.6355 4.06737 -2.05
      vertex -51.6355 4.06737 2.05
    endloop
  endfacet
  facet normal 0.951056 -0.309018 0
    outer loop
      vertex -51.6355 4.06737 -2.05
      vertex -52.2815 2.07912 2.05
      vertex -52.2815 2.07912 -2.05
    endloop
  endfacet
  facet normal -0.743145 -0.669131 0
    outer loop
      vertex -29.4098 5.87785 -2.05
      vertex -30.8087 7.43145 2.05
      vertex -30.8087 7.43145 -2.05
    endloop
  endfacet
  facet normal -0.743145 -0.669131 0
    outer loop
      vertex -30.8087 7.43145 2.05
      vertex -29.4098 5.87785 -2.05
      vertex -29.4098 5.87785 2.05
    endloop
  endfacet
  facet normal -0.207911 -0.978148 0
    outer loop
      vertex -36.4547 9.94522 -2.05
      vertex -34.4098 9.51056 2.05
      vertex -36.4547 9.94522 2.05
    endloop
  endfacet
  facet normal -0.207911 -0.978148 -0
    outer loop
      vertex -34.4098 9.51056 2.05
      vertex -36.4547 9.94522 -2.05
      vertex -34.4098 9.51056 -2.05
    endloop
  endfacet
  facet normal 0.406737 -0.913545 0
    outer loop
      vertex -47.5 8.66025 -2.05
      vertex -45.5902 9.51056 2.05
      vertex -47.5 8.66025 2.05
    endloop
  endfacet
  facet normal 0.406737 -0.913545 0
    outer loop
      vertex -45.5902 9.51056 2.05
      vertex -47.5 8.66025 -2.05
      vertex -45.5902 9.51056 -2.05
    endloop
  endfacet
  facet normal -0.951057 -0.309016 0
    outer loop
      vertex -27.7185 2.07912 -2.05
      vertex -28.3645 4.06737 2.05
      vertex -28.3645 4.06737 -2.05
    endloop
  endfacet
  facet normal -0.951057 -0.309016 0
    outer loop
      vertex -28.3645 4.06737 2.05
      vertex -27.7185 2.07912 -2.05
      vertex -27.7185 2.07912 2.05
    endloop
  endfacet
  facet normal -0.587785 -0.809017 0
    outer loop
      vertex -32.5 8.66025 -2.05
      vertex -30.8087 7.43145 2.05
      vertex -32.5 8.66025 2.05
    endloop
  endfacet
  facet normal -0.587785 -0.809017 -0
    outer loop
      vertex -30.8087 7.43145 2.05
      vertex -32.5 8.66025 -2.05
      vertex -30.8087 7.43145 -2.05
    endloop
  endfacet
  facet normal -0.406737 -0.913545 0
    outer loop
      vertex -34.4098 9.51056 -2.05
      vertex -32.5 8.66025 2.05
      vertex -34.4098 9.51056 2.05
    endloop
  endfacet
  facet normal -0.406737 -0.913545 -0
    outer loop
      vertex -32.5 8.66025 2.05
      vertex -34.4098 9.51056 -2.05
      vertex -32.5 8.66025 -2.05
    endloop
  endfacet
  facet normal 0.994522 -0.104529 0
    outer loop
      vertex -52.5 0 2.05
      vertex -52.2815 2.07912 -2.05
      vertex -52.2815 2.07912 2.05
    endloop
  endfacet
  facet normal 0.994522 -0.104529 0
    outer loop
      vertex -52.2815 2.07912 -2.05
      vertex -52.5 0 2.05
      vertex -52.5 0 -2.05
    endloop
  endfacet
  facet normal 0.866026 -0.499998 0
    outer loop
      vertex -51.6355 4.06737 2.05
      vertex -50.5902 5.87785 -2.05
      vertex -50.5902 5.87785 2.05
    endloop
  endfacet
  facet normal 0.866026 -0.499998 0
    outer loop
      vertex -50.5902 5.87785 -2.05
      vertex -51.6355 4.06737 2.05
      vertex -51.6355 4.06737 -2.05
    endloop
  endfacet
  facet normal 0.587785 -0.809017 0
    outer loop
      vertex -49.1913 7.43145 -2.05
      vertex -47.5 8.66025 2.05
      vertex -49.1913 7.43145 2.05
    endloop
  endfacet
  facet normal 0.587785 -0.809017 0
    outer loop
      vertex -47.5 8.66025 2.05
      vertex -49.1913 7.43145 -2.05
      vertex -47.5 8.66025 -2.05
    endloop
  endfacet
  facet normal 0.207911 -0.978148 0
    outer loop
      vertex -45.5902 9.51056 -2.05
      vertex -43.5453 9.94522 2.05
      vertex -45.5902 9.51056 2.05
    endloop
  endfacet
  facet normal 0.207911 -0.978148 0
    outer loop
      vertex -43.5453 9.94522 2.05
      vertex -45.5902 9.51056 -2.05
      vertex -43.5453 9.94522 -2.05
    endloop
  endfacet
  facet normal 0.743145 -0.669131 0
    outer loop
      vertex -50.5902 5.87785 2.05
      vertex -49.1913 7.43145 -2.05
      vertex -49.1913 7.43145 2.05
    endloop
  endfacet
  facet normal 0.743145 -0.669131 0
    outer loop
      vertex -49.1913 7.43145 -2.05
      vertex -50.5902 5.87785 2.05
      vertex -50.5902 5.87785 -2.05
    endloop
  endfacet
  facet normal -0.994522 -0.104529 0
    outer loop
      vertex -27.5 0 -2.05
      vertex -27.7185 2.07912 2.05
      vertex -27.7185 2.07912 -2.05
    endloop
  endfacet
  facet normal -0.994522 -0.104529 0
    outer loop
      vertex -27.7185 2.07912 2.05
      vertex -27.5 0 -2.05
      vertex -27.5 0 2.05
    endloop
  endfacet
  facet normal 0.743145 0.669131 0
    outer loop
      vertex -49.1913 -7.43145 2.05
      vertex -50.5902 -5.87785 -2.05
      vertex -50.5902 -5.87785 2.05
    endloop
  endfacet
  facet normal 0.743145 0.669131 0
    outer loop
      vertex -50.5902 -5.87785 -2.05
      vertex -49.1913 -7.43145 2.05
      vertex -49.1913 -7.43145 -2.05
    endloop
  endfacet
  facet normal 0.587785 0.809017 -0
    outer loop
      vertex -47.5 -8.66025 -2.05
      vertex -49.1913 -7.43145 2.05
      vertex -47.5 -8.66025 2.05
    endloop
  endfacet
  facet normal 0.587785 0.809017 0
    outer loop
      vertex -49.1913 -7.43145 2.05
      vertex -47.5 -8.66025 -2.05
      vertex -49.1913 -7.43145 -2.05
    endloop
  endfacet
  facet normal 0.994522 0.104529 0
    outer loop
      vertex -52.2815 -2.07912 2.05
      vertex -52.5 0 -2.05
      vertex -52.5 0 2.05
    endloop
  endfacet
  facet normal 0.994522 0.104529 0
    outer loop
      vertex -52.5 0 -2.05
      vertex -52.2815 -2.07912 2.05
      vertex -52.2815 -2.07912 -2.05
    endloop
  endfacet
  facet normal 0.866026 0.499998 0
    outer loop
      vertex -50.5902 -5.87785 2.05
      vertex -51.6355 -4.06737 -2.05
      vertex -51.6355 -4.06737 2.05
    endloop
  endfacet
  facet normal 0.866026 0.499998 0
    outer loop
      vertex -51.6355 -4.06737 -2.05
      vertex -50.5902 -5.87785 2.05
      vertex -50.5902 -5.87785 -2.05
    endloop
  endfacet
  facet normal 0.951056 0.309018 0
    outer loop
      vertex -51.6355 -4.06737 2.05
      vertex -52.2815 -2.07912 -2.05
      vertex -52.2815 -2.07912 2.05
    endloop
  endfacet
  facet normal 0.951056 0.309018 0
    outer loop
      vertex -52.2815 -2.07912 -2.05
      vertex -51.6355 -4.06737 2.05
      vertex -51.6355 -4.06737 -2.05
    endloop
  endfacet
  facet normal 1 -0 0
    outer loop
      vertex -47.5 -21.4708 2.05
      vertex -47.5 -8.66025 -2.05
      vertex -47.5 -8.66025 2.05
    endloop
  endfacet
  facet normal 1 0 0
    outer loop
      vertex -47.5 -8.66025 -2.05
      vertex -47.5 -21.4708 2.05
      vertex -47.5 -21.4708 -2.05
    endloop
  endfacet
  facet normal -1 0 0
    outer loop
      vertex -27.5 -21.4708 -2.05
      vertex -27.5 0 2.05
      vertex -27.5 0 -2.05
    endloop
  endfacet
  facet normal -1 -0 0
    outer loop
      vertex -27.5 0 2.05
      vertex -27.5 -21.4708 -2.05
      vertex -27.5 -21.4708 2.05
    endloop
  endfacet
  facet normal -0.951056 0.309018 0
    outer loop
      vertex 51.6355 -4.06737 -2.05
      vertex 52.2815 -2.07912 2.05
      vertex 52.2815 -2.07912 -2.05
    endloop
  endfacet
  facet normal -0.951056 0.309018 0
    outer loop
      vertex 52.2815 -2.07912 2.05
      vertex 51.6355 -4.06737 -2.05
      vertex 51.6355 -4.06737 2.05
    endloop
  endfacet
  facet normal 0.207911 -0.978148 0
    outer loop
      vertex 34.4098 9.51056 -2.05
      vertex 36.4547 9.94522 2.05
      vertex 34.4098 9.51056 2.05
    endloop
  endfacet
  facet normal 0.207911 -0.978148 0
    outer loop
      vertex 36.4547 9.94522 2.05
      vertex 34.4098 9.51056 -2.05
      vertex 36.4547 9.94522 -2.05
    endloop
  endfacet
  facet normal -0.866026 -0.499998 0
    outer loop
      vertex 51.6355 4.06737 -2.05
      vertex 50.5902 5.87785 2.05
      vertex 50.5902 5.87785 -2.05
    endloop
  endfacet
  facet normal -0.866026 -0.499998 0
    outer loop
      vertex 50.5902 5.87785 2.05
      vertex 51.6355 4.06737 -2.05
      vertex 51.6355 4.06737 2.05
    endloop
  endfacet
  facet normal 0.743145 -0.669131 0
    outer loop
      vertex 29.4098 5.87785 2.05
      vertex 30.8087 7.43145 -2.05
      vertex 30.8087 7.43145 2.05
    endloop
  endfacet
  facet normal 0.743145 -0.669131 0
    outer loop
      vertex 30.8087 7.43145 -2.05
      vertex 29.4098 5.87785 2.05
      vertex 29.4098 5.87785 -2.05
    endloop
  endfacet
  facet normal 0.994522 -0.104529 0
    outer loop
      vertex 27.5 0 2.05
      vertex 27.7185 2.07912 -2.05
      vertex 27.7185 2.07912 2.05
    endloop
  endfacet
  facet normal 0.994522 -0.104529 0
    outer loop
      vertex 27.7185 2.07912 -2.05
      vertex 27.5 0 2.05
      vertex 27.5 0 -2.05
    endloop
  endfacet
  facet normal 0.951057 -0.309016 0
    outer loop
      vertex 27.7185 2.07912 2.05
      vertex 28.3645 4.06737 -2.05
      vertex 28.3645 4.06737 2.05
    endloop
  endfacet
  facet normal 0.951057 -0.309016 0
    outer loop
      vertex 28.3645 4.06737 -2.05
      vertex 27.7185 2.07912 2.05
      vertex 27.7185 2.07912 -2.05
    endloop
  endfacet
  facet normal 0.866026 -0.5 0
    outer loop
      vertex 28.3645 4.06737 2.05
      vertex 29.4098 5.87785 -2.05
      vertex 29.4098 5.87785 2.05
    endloop
  endfacet
  facet normal 0.866026 -0.5 0
    outer loop
      vertex 29.4098 5.87785 -2.05
      vertex 28.3645 4.06737 2.05
      vertex 28.3645 4.06737 -2.05
    endloop
  endfacet
  facet normal 0.587785 -0.809017 0
    outer loop
      vertex 30.8087 7.43145 -2.05
      vertex 32.5 8.66025 2.05
      vertex 30.8087 7.43145 2.05
    endloop
  endfacet
  facet normal 0.587785 -0.809017 0
    outer loop
      vertex 32.5 8.66025 2.05
      vertex 30.8087 7.43145 -2.05
      vertex 32.5 8.66025 -2.05
    endloop
  endfacet
  facet normal 0.406737 -0.913545 0
    outer loop
      vertex 32.5 8.66025 -2.05
      vertex 34.4098 9.51056 2.05
      vertex 32.5 8.66025 2.05
    endloop
  endfacet
  facet normal 0.406737 -0.913545 0
    outer loop
      vertex 34.4098 9.51056 2.05
      vertex 32.5 8.66025 -2.05
      vertex 34.4098 9.51056 -2.05
    endloop
  endfacet
  facet normal -0.207911 -0.978148 0
    outer loop
      vertex 43.5453 9.94522 -2.05
      vertex 45.5902 9.51056 2.05
      vertex 43.5453 9.94522 2.05
    endloop
  endfacet
  facet normal -0.207911 -0.978148 -0
    outer loop
      vertex 45.5902 9.51056 2.05
      vertex 43.5453 9.94522 -2.05
      vertex 45.5902 9.51056 -2.05
    endloop
  endfacet
  facet normal -0.406737 -0.913545 0
    outer loop
      vertex 45.5902 9.51056 -2.05
      vertex 47.5 8.66025 2.05
      vertex 45.5902 9.51056 2.05
    endloop
  endfacet
  facet normal -0.406737 -0.913545 -0
    outer loop
      vertex 47.5 8.66025 2.05
      vertex 45.5902 9.51056 -2.05
      vertex 47.5 8.66025 -2.05
    endloop
  endfacet
  facet normal -0.951056 -0.309018 0
    outer loop
      vertex 52.2815 2.07912 -2.05
      vertex 51.6355 4.06737 2.05
      vertex 51.6355 4.06737 -2.05
    endloop
  endfacet
  facet normal -0.951056 -0.309018 0
    outer loop
      vertex 51.6355 4.06737 2.05
      vertex 52.2815 2.07912 -2.05
      vertex 52.2815 2.07912 2.05
    endloop
  endfacet
  facet normal -0.866026 0.499998 0
    outer loop
      vertex 50.5902 -5.87785 -2.05
      vertex 51.6355 -4.06737 2.05
      vertex 51.6355 -4.06737 -2.05
    endloop
  endfacet
  facet normal -0.866026 0.499998 0
    outer loop
      vertex 51.6355 -4.06737 2.05
      vertex 50.5902 -5.87785 -2.05
      vertex 50.5902 -5.87785 2.05
    endloop
  endfacet
  facet normal 0 -1 0
    outer loop
      vertex 36.4547 9.94522 -2.05
      vertex 43.5453 9.94522 2.05
      vertex 36.4547 9.94522 2.05
    endloop
  endfacet
  facet normal 0 -1 -0
    outer loop
      vertex 43.5453 9.94522 2.05
      vertex 36.4547 9.94522 -2.05
      vertex 43.5453 9.94522 -2.05
    endloop
  endfacet
  facet normal -0.743145 -0.669131 0
    outer loop
      vertex 50.5902 5.87785 -2.05
      vertex 49.1913 7.43145 2.05
      vertex 49.1913 7.43145 -2.05
    endloop
  endfacet
  facet normal -0.743145 -0.669131 0
    outer loop
      vertex 49.1913 7.43145 2.05
      vertex 50.5902 5.87785 -2.05
      vertex 50.5902 5.87785 2.05
    endloop
  endfacet
  facet normal -0.587785 -0.809017 0
    outer loop
      vertex 47.5 8.66025 -2.05
      vertex 49.1913 7.43145 2.05
      vertex 47.5 8.66025 2.05
    endloop
  endfacet
  facet normal -0.587785 -0.809017 -0
    outer loop
      vertex 49.1913 7.43145 2.05
      vertex 47.5 8.66025 -2.05
      vertex 49.1913 7.43145 -2.05
    endloop
  endfacet
  facet normal -0.994522 -0.104529 0
    outer loop
      vertex 52.5 0 -2.05
      vertex 52.2815 2.07912 2.05
      vertex 52.2815 2.07912 -2.05
    endloop
  endfacet
  facet normal -0.994522 -0.104529 0
    outer loop
      vertex 52.2815 2.07912 2.05
      vertex 52.5 0 -2.05
      vertex 52.5 0 2.05
    endloop
  endfacet
  facet normal -0.994522 0.104529 0
    outer loop
      vertex 52.2815 -2.07912 -2.05
      vertex 52.5 0 2.05
      vertex 52.5 0 -2.05
    endloop
  endfacet
  facet normal -0.994522 0.104529 0
    outer loop
      vertex 52.5 0 2.05
      vertex 52.2815 -2.07912 -2.05
      vertex 52.2815 -2.07912 2.05
    endloop
  endfacet
  facet normal -0.743145 0.669131 0
    outer loop
      vertex 49.1913 -7.43145 -2.05
      vertex 50.5902 -5.87785 2.05
      vertex 50.5902 -5.87785 -2.05
    endloop
  endfacet
  facet normal -0.743145 0.669131 0
    outer loop
      vertex 50.5902 -5.87785 2.05
      vertex 49.1913 -7.43145 -2.05
      vertex 49.1913 -7.43145 2.05
    endloop
  endfacet
  facet normal -0.587785 0.809017 0
    outer loop
      vertex 49.1913 -7.43145 -2.05
      vertex 47.5 -8.66025 2.05
      vertex 49.1913 -7.43145 2.05
    endloop
  endfacet
  facet normal -0.587785 0.809017 0
    outer loop
      vertex 47.5 -8.66025 2.05
      vertex 49.1913 -7.43145 -2.05
      vertex 47.5 -8.66025 -2.05
    endloop
  endfacet
  facet normal 1 -0 0
    outer loop
      vertex 27.5 -21.4708 2.05
      vertex 27.5 0 -2.05
      vertex 27.5 0 2.05
    endloop
  endfacet
  facet normal 1 0 0
    outer loop
      vertex 27.5 0 -2.05
      vertex 27.5 -21.4708 2.05
      vertex 27.5 -21.4708 -2.05
    endloop
  endfacet
  facet normal -1 0 0
    outer loop
      vertex 47.5 -21.4708 -2.05
      vertex 47.5 -8.66025 2.05
      vertex 47.5 -8.66025 -2.05
    endloop
  endfacet
  facet normal -1 -0 0
    outer loop
      vertex 47.5 -8.66025 2.05
      vertex 47.5 -21.4708 -2.05
      vertex 47.5 -21.4708 2.05
    endloop
  endfacet
  facet normal 1 -0 0
    outer loop
      vertex 69 -17.5 2.05
      vertex 69 17.5 -2.05
      vertex 69 17.5 2.05
    endloop
  endfacet
  facet normal 1 0 0
    outer loop
      vertex 69 17.5 -2.05
      vertex 69 -17.5 2.05
      vertex 69 -17.5 -2.05
    endloop
  endfacet
  facet normal -0.885456 -0.464723 0
    outer loop
      vertex -67.994 -20.1525 -2.05
      vertex -68.8838 -18.4573 2.05
      vertex -68.8838 -18.4573 -2.05
    endloop
  endfacet
  facet normal -0.885456 -0.464723 0
    outer loop
      vertex -68.8838 -18.4573 2.05
      vertex -67.994 -20.1525 -2.05
      vertex -67.994 -20.1525 2.05
    endloop
  endfacet
  facet normal 0.970942 -0.239316 0
    outer loop
      vertex 68.5418 -19.3589 2.05
      vertex 69 -17.5 -2.05
      vertex 69 -17.5 2.05
    endloop
  endfacet
  facet normal 0.970942 -0.239316 0
    outer loop
      vertex 69 -17.5 -2.05
      vertex 68.5418 -19.3589 2.05
      vertex 68.5418 -19.3589 -2.05
    endloop
  endfacet
  facet normal -0.120536 0.992709 0
    outer loop
      vertex -64.5179 21.4708 -2.05
      vertex -66.4184 21.2401 2.05
      vertex -64.5179 21.4708 2.05
    endloop
  endfacet
  facet normal -0.120536 0.992709 0
    outer loop
      vertex -66.4184 21.2401 2.05
      vertex -64.5179 21.4708 -2.05
      vertex -66.4184 21.2401 -2.05
    endloop
  endfacet
  facet normal -1 0 0
    outer loop
      vertex -68.8838 -18.4573 -2.05
      vertex -68.8838 18.4573 2.05
      vertex -68.8838 18.4573 -2.05
    endloop
  endfacet
  facet normal -1 -0 0
    outer loop
      vertex -68.8838 18.4573 2.05
      vertex -68.8838 -18.4573 -2.05
      vertex -68.8838 -18.4573 2.05
    endloop
  endfacet
  facet normal 0.354604 -0.935016 0
    outer loop
      vertex 65.4821 -21.4708 -2.05
      vertex 67.2723 -20.7919 2.05
      vertex 65.4821 -21.4708 2.05
    endloop
  endfacet
  facet normal 0.354604 -0.935016 0
    outer loop
      vertex 67.2723 -20.7919 2.05
      vertex 65.4821 -21.4708 -2.05
      vertex 67.2723 -20.7919 -2.05
    endloop
  endfacet
  facet normal 0 0 1
    outer loop
      vertex 65.4821 21.4708 2.05
      vertex 69 17.5 2.05
      vertex 68.5418 19.3589 2.05
    endloop
  endfacet
  facet normal 0 0 1
    outer loop
      vertex 69 17.5 2.05
      vertex 52.5 0 2.05
      vertex 69 -17.5 2.05
    endloop
  endfacet
  facet normal 0 0 1
    outer loop
      vertex 65.4821 21.4708 2.05
      vertex 68.5418 19.3589 2.05
      vertex 67.2723 20.7919 2.05
    endloop
  endfacet
  facet normal -0 0 1
    outer loop
      vertex 52.2815 -2.07912 2.05
      vertex 69 -17.5 2.05
      vertex 52.5 0 2.05
    endloop
  endfacet
  facet normal 0 0 1
    outer loop
      vertex 69 17.5 2.05
      vertex 65.4821 21.4708 2.05
      vertex 50.5902 5.87785 2.05
    endloop
  endfacet
  facet normal -0 0 1
    outer loop
      vertex 51.6355 -4.06737 2.05
      vertex 69 -17.5 2.05
      vertex 52.2815 -2.07912 2.05
    endloop
  endfacet
  facet normal -0 0 1
    outer loop
      vertex 50.5902 -5.87785 2.05
      vertex 69 -17.5 2.05
      vertex 51.6355 -4.06737 2.05
    endloop
  endfacet
  facet normal 0 0 1
    outer loop
      vertex 69 17.5 2.05
      vertex 52.2815 2.07912 2.05
      vertex 52.5 0 2.05
    endloop
  endfacet
  facet normal 0 0 1
    outer loop
      vertex 69 17.5 2.05
      vertex 51.6355 4.06737 2.05
      vertex 52.2815 2.07912 2.05
    endloop
  endfacet
  facet normal 0 0 1
    outer loop
      vertex 69 17.5 2.05
      vertex 50.5902 5.87785 2.05
      vertex 51.6355 4.06737 2.05
    endloop
  endfacet
  facet normal 0 0 1
    outer loop
      vertex 65.4821 21.4708 2.05
      vertex 49.1913 7.43145 2.05
      vertex 50.5902 5.87785 2.05
    endloop
  endfacet
  facet normal 0 0 1
    outer loop
      vertex 65.4821 21.4708 2.05
      vertex 47.5 8.66025 2.05
      vertex 49.1913 7.43145 2.05
    endloop
  endfacet
  facet normal 0 0 1
    outer loop
      vertex 65.4821 21.4708 2.05
      vertex 45.5902 9.51056 2.05
      vertex 47.5 8.66025 2.05
    endloop
  endfacet
  facet normal 0 0 1
    outer loop
      vertex 65.4821 21.4708 2.05
      vertex 43.5453 9.94522 2.05
      vertex 45.5902 9.51056 2.05
    endloop
  endfacet
  facet normal 0 0 1
    outer loop
      vertex 65.4821 21.4708 2.05
      vertex 36.4547 9.94522 2.05
      vertex 43.5453 9.94522 2.05
    endloop
  endfacet
  facet normal 0 0 1
    outer loop
      vertex 65.4821 21.4708 2.05
      vertex 34.4098 9.51056 2.05
      vertex 36.4547 9.94522 2.05
    endloop
  endfacet
  facet normal 0 0 1
    outer loop
      vertex 27.5 0 2.05
      vertex -27.5 0 2.05
      vertex 27.5 -21.4708 2.05
    endloop
  endfacet
  facet normal 0 0 1
    outer loop
      vertex 27.7185 2.07912 2.05
      vertex -27.5 0 2.05
      vertex 27.5 0 2.05
    endloop
  endfacet
  facet normal 0 0 1
    outer loop
      vertex -27.7185 2.07912 2.05
      vertex 27.7185 2.07912 2.05
      vertex 28.3645 4.06737 2.05
    endloop
  endfacet
  facet normal 0 0 1
    outer loop
      vertex -28.3645 4.06737 2.05
      vertex 28.3645 4.06737 2.05
      vertex 29.4098 5.87785 2.05
    endloop
  endfacet
  facet normal 0 0 1
    outer loop
      vertex -29.4098 5.87785 2.05
      vertex 29.4098 5.87785 2.05
      vertex 30.8087 7.43145 2.05
    endloop
  endfacet
  facet normal 0 0 1
    outer loop
      vertex -30.8087 7.43145 2.05
      vertex 30.8087 7.43145 2.05
      vertex 32.5 8.66025 2.05
    endloop
  endfacet
  facet normal 0 0 1
    outer loop
      vertex -32.5 8.66025 2.05
      vertex 32.5 8.66025 2.05
      vertex 34.4098 9.51056 2.05
    endloop
  endfacet
  facet normal -0 0 1
    outer loop
      vertex -64.5179 21.4708 2.05
      vertex 34.4098 9.51056 2.05
      vertex 65.4821 21.4708 2.05
    endloop
  endfacet
  facet normal 0 0 1
    outer loop
      vertex 27.7185 2.07912 2.05
      vertex -27.7185 2.07912 2.05
      vertex -27.5 0 2.05
    endloop
  endfacet
  facet normal 0 0 1
    outer loop
      vertex 28.3645 4.06737 2.05
      vertex -28.3645 4.06737 2.05
      vertex -27.7185 2.07912 2.05
    endloop
  endfacet
  facet normal 0 0 1
    outer loop
      vertex 29.4098 5.87785 2.05
      vertex -29.4098 5.87785 2.05
      vertex -28.3645 4.06737 2.05
    endloop
  endfacet
  facet normal 0 0 1
    outer loop
      vertex 30.8087 7.43145 2.05
      vertex -30.8087 7.43145 2.05
      vertex -29.4098 5.87785 2.05
    endloop
  endfacet
  facet normal 0 0 1
    outer loop
      vertex 32.5 8.66025 2.05
      vertex -32.5 8.66025 2.05
      vertex -30.8087 7.43145 2.05
    endloop
  endfacet
  facet normal 0 0 1
    outer loop
      vertex 34.4098 9.51056 2.05
      vertex -34.4098 9.51056 2.05
      vertex -32.5 8.66025 2.05
    endloop
  endfacet
  facet normal 0 0 1
    outer loop
      vertex 34.4098 9.51056 2.05
      vertex -64.5179 21.4708 2.05
      vertex -34.4098 9.51056 2.05
    endloop
  endfacet
  facet normal 0 0 1
    outer loop
      vertex -34.4098 9.51056 2.05
      vertex -64.5179 21.4708 2.05
      vertex -36.4547 9.94522 2.05
    endloop
  endfacet
  facet normal 0 0 1
    outer loop
      vertex -51.6355 4.06737 2.05
      vertex -68.8838 18.4573 2.05
      vertex -52.2815 2.07912 2.05
    endloop
  endfacet
  facet normal 0 0 1
    outer loop
      vertex -50.5902 5.87785 2.05
      vertex -68.8838 18.4573 2.05
      vertex -51.6355 4.06737 2.05
    endloop
  endfacet
  facet normal -0 0 1
    outer loop
      vertex -68.8838 18.4573 2.05
      vertex -50.5902 5.87785 2.05
      vertex -64.5179 21.4708 2.05
    endloop
  endfacet
  facet normal 0 0 1
    outer loop
      vertex -49.1913 7.43145 2.05
      vertex -64.5179 21.4708 2.05
      vertex -50.5902 5.87785 2.05
    endloop
  endfacet
  facet normal 0 0 1
    outer loop
      vertex -47.5 8.66025 2.05
      vertex -64.5179 21.4708 2.05
      vertex -49.1913 7.43145 2.05
    endloop
  endfacet
  facet normal 0 0 1
    outer loop
      vertex -45.5902 9.51056 2.05
      vertex -64.5179 21.4708 2.05
      vertex -47.5 8.66025 2.05
    endloop
  endfacet
  facet normal 0 0 1
    outer loop
      vertex -43.5453 9.94522 2.05
      vertex -64.5179 21.4708 2.05
      vertex -45.5902 9.51056 2.05
    endloop
  endfacet
  facet normal 0 0 1
    outer loop
      vertex -36.4547 9.94522 2.05
      vertex -64.5179 21.4708 2.05
      vertex -43.5453 9.94522 2.05
    endloop
  endfacet
  facet normal 0 -0 1
    outer loop
      vertex 65.4821 -21.4708 2.05
      vertex 69 -17.5 2.05
      vertex 50.5902 -5.87785 2.05
    endloop
  endfacet
  facet normal 0 0 1
    outer loop
      vertex 68.5418 -19.3589 2.05
      vertex 65.4821 -21.4708 2.05
      vertex 67.2723 -20.7919 2.05
    endloop
  endfacet
  facet normal 0 0 1
    outer loop
      vertex 69 -17.5 2.05
      vertex 65.4821 -21.4708 2.05
      vertex 68.5418 -19.3589 2.05
    endloop
  endfacet
  facet normal -0 0 1
    outer loop
      vertex 49.1913 -7.43145 2.05
      vertex 65.4821 -21.4708 2.05
      vertex 50.5902 -5.87785 2.05
    endloop
  endfacet
  facet normal 0 0 1
    outer loop
      vertex 47.5 -21.4708 2.05
      vertex 49.1913 -7.43145 2.05
      vertex 47.5 -8.66025 2.05
    endloop
  endfacet
  facet normal 0 0 1
    outer loop
      vertex 49.1913 -7.43145 2.05
      vertex 47.5 -21.4708 2.05
      vertex 65.4821 -21.4708 2.05
    endloop
  endfacet
  facet normal 0 0 1
    outer loop
      vertex 27.5 -21.4708 2.05
      vertex -27.5 0 2.05
      vertex -27.5 -21.4708 2.05
    endloop
  endfacet
  facet normal 0 0 1
    outer loop
      vertex -49.1913 -7.43145 2.05
      vertex -47.5 -21.4708 2.05
      vertex -47.5 -8.66025 2.05
    endloop
  endfacet
  facet normal 0 0 1
    outer loop
      vertex -64.5179 -21.4708 2.05
      vertex -49.1913 -7.43145 2.05
      vertex -50.5902 -5.87785 2.05
    endloop
  endfacet
  facet normal 0 0 1
    outer loop
      vertex -68.8838 -18.4573 2.05
      vertex -50.5902 -5.87785 2.05
      vertex -51.6355 -4.06737 2.05
    endloop
  endfacet
  facet normal 0 0 1
    outer loop
      vertex -68.8838 -18.4573 2.05
      vertex -51.6355 -4.06737 2.05
      vertex -52.2815 -2.07912 2.05
    endloop
  endfacet
  facet normal 0 0 1
    outer loop
      vertex -52.2815 2.07912 2.05
      vertex -68.8838 18.4573 2.05
      vertex -52.5 0 2.05
    endloop
  endfacet
  facet normal 0 0 1
    outer loop
      vertex -68.8838 -18.4573 2.05
      vertex -52.5 0 2.05
      vertex -68.8838 18.4573 2.05
    endloop
  endfacet
  facet normal 0 0 1
    outer loop
      vertex -52.5 0 2.05
      vertex -68.8838 -18.4573 2.05
      vertex -52.2815 -2.07912 2.05
    endloop
  endfacet
  facet normal 0 0 1
    outer loop
      vertex -68.8838 18.4573 2.05
      vertex -64.5179 21.4708 2.05
      vertex -66.4184 21.2401 2.05
    endloop
  endfacet
  facet normal 0 0 1
    outer loop
      vertex -50.5902 -5.87785 2.05
      vertex -68.8838 -18.4573 2.05
      vertex -64.5179 -21.4708 2.05
    endloop
  endfacet
  facet normal 0 0 1
    outer loop
      vertex -68.8838 18.4573 2.05
      vertex -66.4184 21.2401 2.05
      vertex -67.994 20.1525 2.05
    endloop
  endfacet
  facet normal 0 0 1
    outer loop
      vertex -49.1913 -7.43145 2.05
      vertex -64.5179 -21.4708 2.05
      vertex -47.5 -21.4708 2.05
    endloop
  endfacet
  facet normal 0 0 1
    outer loop
      vertex -64.5179 -21.4708 2.05
      vertex -68.8838 -18.4573 2.05
      vertex -66.4184 -21.2401 2.05
    endloop
  endfacet
  facet normal 0 0 1
    outer loop
      vertex -66.4184 -21.2401 2.05
      vertex -68.8838 -18.4573 2.05
      vertex -67.994 -20.1525 2.05
    endloop
  endfacet
  facet normal 0 -1 0
    outer loop
      vertex 47.5 -21.4708 -2.05
      vertex 65.4821 -21.4708 2.05
      vertex 47.5 -21.4708 2.05
    endloop
  endfacet
  facet normal 0 -1 -0
    outer loop
      vertex 65.4821 -21.4708 2.05
      vertex 47.5 -21.4708 -2.05
      vertex 65.4821 -21.4708 -2.05
    endloop
  endfacet
  facet normal 0 -1 0
    outer loop
      vertex -64.5179 -21.4708 -2.05
      vertex -47.5 -21.4708 2.05
      vertex -64.5179 -21.4708 2.05
    endloop
  endfacet
  facet normal 0 -1 -0
    outer loop
      vertex -47.5 -21.4708 2.05
      vertex -64.5179 -21.4708 -2.05
      vertex -47.5 -21.4708 -2.05
    endloop
  endfacet
  facet normal 0 -1 0
    outer loop
      vertex -27.5 -21.4708 -2.05
      vertex 27.5 -21.4708 2.05
      vertex -27.5 -21.4708 2.05
    endloop
  endfacet
  facet normal 0 -1 -0
    outer loop
      vertex 27.5 -21.4708 2.05
      vertex -27.5 -21.4708 -2.05
      vertex 27.5 -21.4708 -2.05
    endloop
  endfacet
  facet normal 0.748512 -0.663122 0
    outer loop
      vertex 67.2723 -20.7919 2.05
      vertex 68.5418 -19.3589 -2.05
      vertex 68.5418 -19.3589 2.05
    endloop
  endfacet
  facet normal 0.748512 -0.663122 0
    outer loop
      vertex 68.5418 -19.3589 -2.05
      vertex 67.2723 -20.7919 2.05
      vertex 67.2723 -20.7919 -2.05
    endloop
  endfacet
  facet normal 0 1 -0
    outer loop
      vertex 65.4821 21.4708 -2.05
      vertex -64.5179 21.4708 2.05
      vertex 65.4821 21.4708 2.05
    endloop
  endfacet
  facet normal 0 1 0
    outer loop
      vertex -64.5179 21.4708 2.05
      vertex 65.4821 21.4708 -2.05
      vertex -64.5179 21.4708 -2.05
    endloop
  endfacet
  facet normal 0.354604 0.935016 -0
    outer loop
      vertex 67.2723 20.7919 -2.05
      vertex 65.4821 21.4708 2.05
      vertex 67.2723 20.7919 2.05
    endloop
  endfacet
  facet normal 0.354604 0.935016 0
    outer loop
      vertex 65.4821 21.4708 2.05
      vertex 67.2723 20.7919 -2.05
      vertex 65.4821 21.4708 -2.05
    endloop
  endfacet
  facet normal 0 0 -1
    outer loop
      vertex -47.5 -21.4708 -2.05
      vertex -49.1913 -7.43145 -2.05
      vertex -47.5 -8.66025 -2.05
    endloop
  endfacet
  facet normal 0 0 -1
    outer loop
      vertex -64.5179 -21.4708 -2.05
      vertex -49.1913 -7.43145 -2.05
      vertex -47.5 -21.4708 -2.05
    endloop
  endfacet
  facet normal -0 0 -1
    outer loop
      vertex -49.1913 -7.43145 -2.05
      vertex -64.5179 -21.4708 -2.05
      vertex -50.5902 -5.87785 -2.05
    endloop
  endfacet
  facet normal 0 0 -1
    outer loop
      vertex -68.8838 -18.4573 -2.05
      vertex -50.5902 -5.87785 -2.05
      vertex -64.5179 -21.4708 -2.05
    endloop
  endfacet
  facet normal -0 0 -1
    outer loop
      vertex -51.6355 -4.06737 -2.05
      vertex -68.8838 -18.4573 -2.05
      vertex -52.2815 -2.07912 -2.05
    endloop
  endfacet
  facet normal -0 0 -1
    outer loop
      vertex -50.5902 -5.87785 -2.05
      vertex -68.8838 -18.4573 -2.05
      vertex -51.6355 -4.06737 -2.05
    endloop
  endfacet
  facet normal 0 0 -1
    outer loop
      vertex 27.5 -21.4708 -2.05
      vertex -27.5 -21.4708 -2.05
      vertex 27.5 0 -2.05
    endloop
  endfacet
  facet normal 0 0 -1
    outer loop
      vertex 65.4821 -21.4708 -2.05
      vertex 69 -17.5 -2.05
      vertex 68.5418 -19.3589 -2.05
    endloop
  endfacet
  facet normal 0 0 -1
    outer loop
      vertex 69 -17.5 -2.05
      vertex 52.5 0 -2.05
      vertex 69 17.5 -2.05
    endloop
  endfacet
  facet normal 0 0 -1
    outer loop
      vertex 65.4821 -21.4708 -2.05
      vertex 68.5418 -19.3589 -2.05
      vertex 67.2723 -20.7919 -2.05
    endloop
  endfacet
  facet normal 0 0 -1
    outer loop
      vertex 52.2815 2.07912 -2.05
      vertex 69 17.5 -2.05
      vertex 52.5 0 -2.05
    endloop
  endfacet
  facet normal -0 0 -1
    outer loop
      vertex 69 -17.5 -2.05
      vertex 65.4821 -21.4708 -2.05
      vertex 50.5902 -5.87785 -2.05
    endloop
  endfacet
  facet normal 0 0 -1
    outer loop
      vertex 51.6355 4.06737 -2.05
      vertex 69 17.5 -2.05
      vertex 52.2815 2.07912 -2.05
    endloop
  endfacet
  facet normal 0 0 -1
    outer loop
      vertex 50.5902 5.87785 -2.05
      vertex 69 17.5 -2.05
      vertex 51.6355 4.06737 -2.05
    endloop
  endfacet
  facet normal 0 0 -1
    outer loop
      vertex 69 -17.5 -2.05
      vertex 52.2815 -2.07912 -2.05
      vertex 52.5 0 -2.05
    endloop
  endfacet
  facet normal 0 0 -1
    outer loop
      vertex 69 -17.5 -2.05
      vertex 51.6355 -4.06737 -2.05
      vertex 52.2815 -2.07912 -2.05
    endloop
  endfacet
  facet normal 0 0 -1
    outer loop
      vertex 69 -17.5 -2.05
      vertex 50.5902 -5.87785 -2.05
      vertex 51.6355 -4.06737 -2.05
    endloop
  endfacet
  facet normal 0 0 -1
    outer loop
      vertex 65.4821 -21.4708 -2.05
      vertex 49.1913 -7.43145 -2.05
      vertex 50.5902 -5.87785 -2.05
    endloop
  endfacet
  facet normal 0 0 -1
    outer loop
      vertex 47.5 -21.4708 -2.05
      vertex 49.1913 -7.43145 -2.05
      vertex 65.4821 -21.4708 -2.05
    endloop
  endfacet
  facet normal 0 0 -1
    outer loop
      vertex 49.1913 -7.43145 -2.05
      vertex 47.5 -21.4708 -2.05
      vertex 47.5 -8.66025 -2.05
    endloop
  endfacet
  facet normal 0 -0 -1
    outer loop
      vertex 65.4821 21.4708 -2.05
      vertex 69 17.5 -2.05
      vertex 50.5902 5.87785 -2.05
    endloop
  endfacet
  facet normal 0 0 -1
    outer loop
      vertex 68.5418 19.3589 -2.05
      vertex 65.4821 21.4708 -2.05
      vertex 67.2723 20.7919 -2.05
    endloop
  endfacet
  facet normal 0 0 -1
    outer loop
      vertex 69 17.5 -2.05
      vertex 65.4821 21.4708 -2.05
      vertex 68.5418 19.3589 -2.05
    endloop
  endfacet
  facet normal 0 0 -1
    outer loop
      vertex 49.1913 7.43145 -2.05
      vertex 65.4821 21.4708 -2.05
      vertex 50.5902 5.87785 -2.05
    endloop
  endfacet
  facet normal 0 0 -1
    outer loop
      vertex 47.5 8.66025 -2.05
      vertex 65.4821 21.4708 -2.05
      vertex 49.1913 7.43145 -2.05
    endloop
  endfacet
  facet normal 0 0 -1
    outer loop
      vertex 45.5902 9.51056 -2.05
      vertex 65.4821 21.4708 -2.05
      vertex 47.5 8.66025 -2.05
    endloop
  endfacet
  facet normal 0 0 -1
    outer loop
      vertex 43.5453 9.94522 -2.05
      vertex 65.4821 21.4708 -2.05
      vertex 45.5902 9.51056 -2.05
    endloop
  endfacet
  facet normal 0 0 -1
    outer loop
      vertex 36.4547 9.94522 -2.05
      vertex 65.4821 21.4708 -2.05
      vertex 43.5453 9.94522 -2.05
    endloop
  endfacet
  facet normal 0 0 -1
    outer loop
      vertex 34.4098 9.51056 -2.05
      vertex 65.4821 21.4708 -2.05
      vertex 36.4547 9.94522 -2.05
    endloop
  endfacet
  facet normal 0 0 -1
    outer loop
      vertex -27.5 0 -2.05
      vertex 27.5 0 -2.05
      vertex -27.5 -21.4708 -2.05
    endloop
  endfacet
  facet normal 0 0 -1
    outer loop
      vertex 27.5 0 -2.05
      vertex -27.5 0 -2.05
      vertex 27.7185 2.07912 -2.05
    endloop
  endfacet
  facet normal 0 0 -1
    outer loop
      vertex -27.7185 2.07912 -2.05
      vertex 27.7185 2.07912 -2.05
      vertex -27.5 0 -2.05
    endloop
  endfacet
  facet normal 0 0 -1
    outer loop
      vertex 27.7185 2.07912 -2.05
      vertex -27.7185 2.07912 -2.05
      vertex 28.3645 4.06737 -2.05
    endloop
  endfacet
  facet normal 0 0 -1
    outer loop
      vertex -28.3645 4.06737 -2.05
      vertex 28.3645 4.06737 -2.05
      vertex -27.7185 2.07912 -2.05
    endloop
  endfacet
  facet normal 0 0 -1
    outer loop
      vertex 28.3645 4.06737 -2.05
      vertex -28.3645 4.06737 -2.05
      vertex 29.4098 5.87785 -2.05
    endloop
  endfacet
  facet normal 0 0 -1
    outer loop
      vertex -29.4098 5.87785 -2.05
      vertex 29.4098 5.87785 -2.05
      vertex -28.3645 4.06737 -2.05
    endloop
  endfacet
  facet normal 0 0 -1
    outer loop
      vertex 29.4098 5.87785 -2.05
      vertex -29.4098 5.87785 -2.05
      vertex 30.8087 7.43145 -2.05
    endloop
  endfacet
  facet normal 0 0 -1
    outer loop
      vertex -30.8087 7.43145 -2.05
      vertex 30.8087 7.43145 -2.05
      vertex -29.4098 5.87785 -2.05
    endloop
  endfacet
  facet normal 0 0 -1
    outer loop
      vertex 30.8087 7.43145 -2.05
      vertex -30.8087 7.43145 -2.05
      vertex 32.5 8.66025 -2.05
    endloop
  endfacet
  facet normal 0 0 -1
    outer loop
      vertex -32.5 8.66025 -2.05
      vertex 32.5 8.66025 -2.05
      vertex -30.8087 7.43145 -2.05
    endloop
  endfacet
  facet normal 0 0 -1
    outer loop
      vertex 32.5 8.66025 -2.05
      vertex -32.5 8.66025 -2.05
      vertex 34.4098 9.51056 -2.05
    endloop
  endfacet
  facet normal 0 0 -1
    outer loop
      vertex -34.4098 9.51056 -2.05
      vertex 34.4098 9.51056 -2.05
      vertex -32.5 8.66025 -2.05
    endloop
  endfacet
  facet normal 0 0 -1
    outer loop
      vertex -64.5179 21.4708 -2.05
      vertex 34.4098 9.51056 -2.05
      vertex -34.4098 9.51056 -2.05
    endloop
  endfacet
  facet normal 0 0 -1
    outer loop
      vertex -64.5179 21.4708 -2.05
      vertex -34.4098 9.51056 -2.05
      vertex -36.4547 9.94522 -2.05
    endloop
  endfacet
  facet normal 0 0 -1
    outer loop
      vertex -64.5179 21.4708 -2.05
      vertex -36.4547 9.94522 -2.05
      vertex -43.5453 9.94522 -2.05
    endloop
  endfacet
  facet normal -0 0 -1
    outer loop
      vertex -52.2815 -2.07912 -2.05
      vertex -68.8838 -18.4573 -2.05
      vertex -52.5 0 -2.05
    endloop
  endfacet
  facet normal 0 0 -1
    outer loop
      vertex -68.8838 18.4573 -2.05
      vertex -52.5 0 -2.05
      vertex -68.8838 -18.4573 -2.05
    endloop
  endfacet
  facet normal 0 0 -1
    outer loop
      vertex 34.4098 9.51056 -2.05
      vertex -64.5179 21.4708 -2.05
      vertex 65.4821 21.4708 -2.05
    endloop
  endfacet
  facet normal 0 0 -1
    outer loop
      vertex -45.5902 9.51056 -2.05
      vertex -64.5179 21.4708 -2.05
      vertex -43.5453 9.94522 -2.05
    endloop
  endfacet
  facet normal 0 0 -1
    outer loop
      vertex -47.5 8.66025 -2.05
      vertex -64.5179 21.4708 -2.05
      vertex -45.5902 9.51056 -2.05
    endloop
  endfacet
  facet normal 0 0 -1
    outer loop
      vertex -49.1913 7.43145 -2.05
      vertex -64.5179 21.4708 -2.05
      vertex -47.5 8.66025 -2.05
    endloop
  endfacet
  facet normal 0 0 -1
    outer loop
      vertex -50.5902 5.87785 -2.05
      vertex -64.5179 21.4708 -2.05
      vertex -49.1913 7.43145 -2.05
    endloop
  endfacet
  facet normal 0 0 -1
    outer loop
      vertex -68.8838 18.4573 -2.05
      vertex -50.5902 5.87785 -2.05
      vertex -51.6355 4.06737 -2.05
    endloop
  endfacet
  facet normal 0 0 -1
    outer loop
      vertex -52.5 0 -2.05
      vertex -68.8838 18.4573 -2.05
      vertex -52.2815 2.07912 -2.05
    endloop
  endfacet
  facet normal 0 0 -1
    outer loop
      vertex -68.8838 -18.4573 -2.05
      vertex -64.5179 -21.4708 -2.05
      vertex -66.4184 -21.2401 -2.05
    endloop
  endfacet
  facet normal 0 0 -1
    outer loop
      vertex -52.2815 2.07912 -2.05
      vertex -68.8838 18.4573 -2.05
      vertex -51.6355 4.06737 -2.05
    endloop
  endfacet
  facet normal 0 0 -1
    outer loop
      vertex -68.8838 -18.4573 -2.05
      vertex -66.4184 -21.2401 -2.05
      vertex -67.994 -20.1525 -2.05
    endloop
  endfacet
  facet normal 0 0 -1
    outer loop
      vertex -50.5902 5.87785 -2.05
      vertex -68.8838 18.4573 -2.05
      vertex -64.5179 21.4708 -2.05
    endloop
  endfacet
  facet normal 0 0 -1
    outer loop
      vertex -64.5179 21.4708 -2.05
      vertex -68.8838 18.4573 -2.05
      vertex -66.4184 21.2401 -2.05
    endloop
  endfacet
  facet normal 0 0 -1
    outer loop
      vertex -66.4184 21.2401 -2.05
      vertex -68.8838 18.4573 -2.05
      vertex -67.994 20.1525 -2.05
    endloop
  endfacet
  facet normal -0.568065 -0.822984 0
    outer loop
      vertex -67.994 -20.1525 -2.05
      vertex -66.4184 -21.2401 2.05
      vertex -67.994 -20.1525 2.05
    endloop
  endfacet
  facet normal -0.568065 -0.822984 -0
    outer loop
      vertex -66.4184 -21.2401 2.05
      vertex -67.994 -20.1525 -2.05
      vertex -66.4184 -21.2401 -2.05
    endloop
  endfacet
  facet normal -0.120536 -0.992709 0
    outer loop
      vertex -66.4184 -21.2401 -2.05
      vertex -64.5179 -21.4708 2.05
      vertex -66.4184 -21.2401 2.05
    endloop
  endfacet
  facet normal -0.120536 -0.992709 -0
    outer loop
      vertex -64.5179 -21.4708 2.05
      vertex -66.4184 -21.2401 -2.05
      vertex -64.5179 -21.4708 -2.05
    endloop
  endfacet
  facet normal -0.885456 0.464723 0
    outer loop
      vertex -68.8838 18.4573 -2.05
      vertex -67.994 20.1525 2.05
      vertex -67.994 20.1525 -2.05
    endloop
  endfacet
  facet normal -0.885456 0.464723 0
    outer loop
      vertex -67.994 20.1525 2.05
      vertex -68.8838 18.4573 -2.05
      vertex -68.8838 18.4573 2.05
    endloop
  endfacet
  facet normal -0.568065 0.822984 0
    outer loop
      vertex -66.4184 21.2401 -2.05
      vertex -67.994 20.1525 2.05
      vertex -66.4184 21.2401 2.05
    endloop
  endfacet
  facet normal -0.568065 0.822984 0
    outer loop
      vertex -67.994 20.1525 2.05
      vertex -66.4184 21.2401 -2.05
      vertex -67.994 20.1525 -2.05
    endloop
  endfacet
  facet normal 0.748512 0.663122 0
    outer loop
      vertex 68.5418 19.3589 2.05
      vertex 67.2723 20.7919 -2.05
      vertex 67.2723 20.7919 2.05
    endloop
  endfacet
  facet normal 0.748512 0.663122 0
    outer loop
      vertex 67.2723 20.7919 -2.05
      vertex 68.5418 19.3589 2.05
      vertex 68.5418 19.3589 -2.05
    endloop
  endfacet
  facet normal 0.970942 0.239316 0
    outer loop
      vertex 69 17.5 2.05
      vertex 68.5418 19.3589 -2.05
      vertex 68.5418 19.3589 2.05
    endloop
  endfacet
  facet normal 0.970942 0.239316 0
    outer loop
      vertex 68.5418 19.3589 -2.05
      vertex 69 17.5 2.05
      vertex 69 17.5 -2.05
    endloop
  endfacet
endsolid OpenSCAD_Model
