solid OpenSCAD_Model
  facet normal 0 0 -1
    outer loop
      vertex 7.72846e-08 -108.75 0
      vertex 3.15366e-07 -112.5 0
      vertex -67.7628 -59.5175 0
    endloop
  endfacet
  facet normal 0 0 -1
    outer loop
      vertex -41.8797 20.1425 0
      vertex -44.0839 23.1763 0
      vertex 44.0839 23.1763 0
    endloop
  endfacet
  facet normal 0 0 -1
    outer loop
      vertex 67.7628 -59.5175 0
      vertex 44.0839 23.1763 0
      vertex 71.3292 -60.6763 0
    endloop
  endfacet
  facet normal 0 0 -1
    outer loop
      vertex 41.8797 20.1425 0
      vertex -41.8797 20.1425 0
      vertex 44.0839 23.1763 0
    endloop
  endfacet
  facet normal 0 0 -1
    outer loop
      vertex -71.3292 -60.6763 0
      vertex -44.0839 23.1763 0
      vertex -67.7628 -59.5175 0
    endloop
  endfacet
  facet normal 0 0 -1
    outer loop
      vertex -71.3292 -60.6763 0
      vertex -67.7628 -59.5175 0
      vertex 3.15366e-07 -112.5 0
    endloop
  endfacet
  facet normal 0 0 -1
    outer loop
      vertex 67.7628 -59.5175 0
      vertex 3.15366e-07 -112.5 0
      vertex 7.72846e-08 -108.75 0
    endloop
  endfacet
  facet normal 0 0 -1
    outer loop
      vertex 41.8797 20.1425 0
      vertex 44.0839 23.1763 0
      vertex 67.7628 -59.5175 0
    endloop
  endfacet
  facet normal 0 0 -1
    outer loop
      vertex 3.15366e-07 -112.5 0
      vertex 67.7628 -59.5175 0
      vertex 71.3292 -60.6763 0
    endloop
  endfacet
  facet normal 0 0 -1
    outer loop
      vertex -67.7628 -59.5175 0
      vertex -44.0839 23.1763 0
      vertex -41.8797 20.1425 0
    endloop
  endfacet
  facet normal -0.951057 0.309017 0
    outer loop
      vertex -49.8475 5.43785 12.5357
      vertex -44.0839 23.1763 0
      vertex -53.3812 -5.43785 7.46429
    endloop
  endfacet
  facet normal -0.951057 0.309017 0
    outer loop
      vertex -71.3292 -60.6763 0
      vertex -71.3292 -60.6763 25
      vertex -53.3812 -5.43785 7.46429
    endloop
  endfacet
  facet normal -0.951057 0.309017 0
    outer loop
      vertex -71.3292 -60.6763 0
      vertex -53.3812 -5.43785 7.46429
      vertex -44.0839 23.1763 0
    endloop
  endfacet
  facet normal -0.951057 0.309017 0
    outer loop
      vertex -44.0839 23.1763 0
      vertex -49.8475 5.43785 12.5357
      vertex -51.736 -0.374347 25
    endloop
  endfacet
  facet normal -0.951057 0.309017 0
    outer loop
      vertex -44.0839 23.1763 0
      vertex -51.736 -0.374347 25
      vertex -44.0839 23.1763 25
    endloop
  endfacet
  facet normal -0.951057 0.309017 0
    outer loop
      vertex -53.3812 -5.43785 7.46429
      vertex -71.3292 -60.6763 25
      vertex -56.0381 -13.6149 25
    endloop
  endfacet
  facet normal -0.587785 -0.809017 0
    outer loop
      vertex -71.3292 -60.6763 25
      vertex -71.3292 -60.6763 0
      vertex 3.15366e-07 -112.5 0
    endloop
  endfacet
  facet normal -0.587785 -0.809017 0
    outer loop
      vertex 3.15366e-07 -112.5 25
      vertex -71.3292 -60.6763 25
      vertex 3.15366e-07 -112.5 0
    endloop
  endfacet
  facet normal 0.587785 -0.809017 0
    outer loop
      vertex 3.15366e-07 -112.5 25
      vertex 3.15366e-07 -112.5 0
      vertex 71.3292 -60.6763 0
    endloop
  endfacet
  facet normal 0.587785 -0.809017 0
    outer loop
      vertex 71.3292 -60.6763 25
      vertex 3.15366e-07 -112.5 25
      vertex 71.3292 -60.6763 0
    endloop
  endfacet
  facet normal 0.951057 0.309017 0
    outer loop
      vertex 49.8475 5.43785 12.5357
      vertex 44.0839 23.1763 0
      vertex 44.0839 23.1763 25
    endloop
  endfacet
  facet normal 0.951057 0.309017 0
    outer loop
      vertex 53.3812 -5.43785 7.46429
      vertex 44.0839 23.1763 0
      vertex 49.8475 5.43785 12.5357
    endloop
  endfacet
  facet normal 0.951057 0.309017 0
    outer loop
      vertex 71.3292 -60.6763 0
      vertex 44.0839 23.1763 0
      vertex 53.3812 -5.43785 7.46429
    endloop
  endfacet
  facet normal 0.951057 0.309017 0
    outer loop
      vertex 71.3292 -60.6763 25
      vertex 71.3292 -60.6763 0
      vertex 56.0381 -13.6149 25
    endloop
  endfacet
  facet normal 0.951057 0.309017 0
    outer loop
      vertex 51.736 -0.374347 25
      vertex 49.8475 5.43785 12.5357
      vertex 44.0839 23.1763 25
    endloop
  endfacet
  facet normal 0.951057 0.309017 0
    outer loop
      vertex 53.3812 -5.43785 7.46429
      vertex 56.0381 -13.6149 25
      vertex 71.3292 -60.6763 0
    endloop
  endfacet
  facet normal 8.02055e-10 1 0
    outer loop
      vertex -44.0839 23.1763 0
      vertex -44.0839 23.1763 25
      vertex 44.0839 23.1763 0
    endloop
  endfacet
  facet normal 8.02055e-10 1 0
    outer loop
      vertex 44.0839 23.1763 0
      vertex -44.0839 23.1763 25
      vertex 44.0839 23.1763 25
    endloop
  endfacet
  facet normal 3.88127e-09 -1 0
    outer loop
      vertex 41.8797 20.1425 0
      vertex 41.8797 20.1425 25
      vertex -41.8797 20.1425 25
    endloop
  endfacet
  facet normal 3.88127e-09 -1 0
    outer loop
      vertex -41.8797 20.1425 0
      vertex 41.8797 20.1425 0
      vertex -41.8797 20.1425 25
    endloop
  endfacet
  facet normal 0.951057 -0.309017 0
    outer loop
      vertex -41.8797 20.1425 0
      vertex -41.8797 20.1425 25
      vertex -48.546 -0.374347 25
    endloop
  endfacet
  facet normal 0.951057 -0.309017 0
    outer loop
      vertex -50.1912 -5.43785 7.46429
      vertex -41.8797 20.1425 0
      vertex -46.6575 5.43785 12.5357
    endloop
  endfacet
  facet normal 0.951057 -0.309017 0
    outer loop
      vertex -46.6575 5.43785 12.5357
      vertex -41.8797 20.1425 0
      vertex -48.546 -0.374347 25
    endloop
  endfacet
  facet normal 0.951057 -0.309017 0
    outer loop
      vertex -67.7628 -59.5175 0
      vertex -41.8797 20.1425 0
      vertex -50.1912 -5.43785 7.46429
    endloop
  endfacet
  facet normal 0.951057 -0.309017 0
    outer loop
      vertex -67.7628 -59.5175 25
      vertex -50.1912 -5.43785 7.46429
      vertex -52.8481 -13.6149 25
    endloop
  endfacet
  facet normal 0.951057 -0.309017 0
    outer loop
      vertex -67.7628 -59.5175 0
      vertex -50.1912 -5.43785 7.46429
      vertex -67.7628 -59.5175 25
    endloop
  endfacet
  facet normal -0.951057 -0.309017 0
    outer loop
      vertex 67.7628 -59.5175 25
      vertex 52.8481 -13.6149 25
      vertex 67.7628 -59.5175 0
    endloop
  endfacet
  facet normal -0.951057 -0.309017 0
    outer loop
      vertex 67.7628 -59.5175 0
      vertex 52.8481 -13.6149 25
      vertex 50.1912 -5.43785 7.46429
    endloop
  endfacet
  facet normal -0.951057 -0.309017 0
    outer loop
      vertex 50.1912 -5.43785 7.46429
      vertex 41.8797 20.1425 0
      vertex 67.7628 -59.5175 0
    endloop
  endfacet
  facet normal -0.951057 -0.309017 0
    outer loop
      vertex 46.6575 5.43785 12.5357
      vertex 48.546 -0.374347 25
      vertex 41.8797 20.1425 25
    endloop
  endfacet
  facet normal -0.951057 -0.309017 0
    outer loop
      vertex 46.6575 5.43785 12.5357
      vertex 41.8797 20.1425 25
      vertex 41.8797 20.1425 0
    endloop
  endfacet
  facet normal -0.951057 -0.309017 0
    outer loop
      vertex 46.6575 5.43785 12.5357
      vertex 41.8797 20.1425 0
      vertex 50.1912 -5.43785 7.46429
    endloop
  endfacet
  facet normal -0.587785 0.809017 0
    outer loop
      vertex 67.7628 -59.5175 25
      vertex 67.7628 -59.5175 0
      vertex 7.72846e-08 -108.75 25
    endloop
  endfacet
  facet normal -0.587785 0.809017 0
    outer loop
      vertex 7.72846e-08 -108.75 25
      vertex 67.7628 -59.5175 0
      vertex 7.72846e-08 -108.75 0
    endloop
  endfacet
  facet normal 0.587785 0.809017 0
    outer loop
      vertex 7.72846e-08 -108.75 25
      vertex 7.72846e-08 -108.75 0
      vertex -67.7628 -59.5175 25
    endloop
  endfacet
  facet normal 0.587785 0.809017 0
    outer loop
      vertex -67.7628 -59.5175 25
      vertex 7.72846e-08 -108.75 0
      vertex -67.7628 -59.5175 0
    endloop
  endfacet
  facet normal 0 0 1
    outer loop
      vertex -44.0839 23.1763 25
      vertex -51.736 -0.374347 25
      vertex -48.546 -0.374347 25
    endloop
  endfacet
  facet normal 0 0 1
    outer loop
      vertex 41.8797 20.1425 25
      vertex -44.0839 23.1763 25
      vertex -41.8797 20.1425 25
    endloop
  endfacet
  facet normal 0 0 1
    outer loop
      vertex -41.8797 20.1425 25
      vertex -44.0839 23.1763 25
      vertex -48.546 -0.374347 25
    endloop
  endfacet
  facet normal 0 0 1
    outer loop
      vertex 44.0839 23.1763 25
      vertex -44.0839 23.1763 25
      vertex 41.8797 20.1425 25
    endloop
  endfacet
  facet normal 0 0 1
    outer loop
      vertex 51.736 -0.374347 25
      vertex 41.8797 20.1425 25
      vertex 48.546 -0.374347 25
    endloop
  endfacet
  facet normal 0 0 1
    outer loop
      vertex 44.0839 23.1763 25
      vertex 41.8797 20.1425 25
      vertex 51.736 -0.374347 25
    endloop
  endfacet
  facet normal 0 -0.906308 -0.422618
    outer loop
      vertex -49.8475 5.43785 12.5357
      vertex -46.6575 5.43785 12.5357
      vertex -48.546 -0.374347 25
    endloop
  endfacet
  facet normal 0 -0.906308 -0.422618
    outer loop
      vertex -51.736 -0.374347 25
      vertex -49.8475 5.43785 12.5357
      vertex -48.546 -0.374347 25
    endloop
  endfacet
  facet normal 0 -0.422618 0.906308
    outer loop
      vertex -50.1912 -5.43785 7.46429
      vertex -46.6575 5.43785 12.5357
      vertex -49.8475 5.43785 12.5357
    endloop
  endfacet
  facet normal 0 -0.422618 0.906308
    outer loop
      vertex -53.3812 -5.43785 7.46429
      vertex -50.1912 -5.43785 7.46429
      vertex -49.8475 5.43785 12.5357
    endloop
  endfacet
  facet normal 0 0.906308 0.422618
    outer loop
      vertex -50.1912 -5.43785 7.46429
      vertex -53.3812 -5.43785 7.46429
      vertex -52.8481 -13.6149 25
    endloop
  endfacet
  facet normal 0 0.906308 0.422618
    outer loop
      vertex -52.8481 -13.6149 25
      vertex -53.3812 -5.43785 7.46429
      vertex -56.0381 -13.6149 25
    endloop
  endfacet
  facet normal 0 0 1
    outer loop
      vertex -67.7628 -59.5175 25
      vertex -71.3292 -60.6763 25
      vertex 3.15366e-07 -112.5 25
    endloop
  endfacet
  facet normal 0 0 1
    outer loop
      vertex 7.72846e-08 -108.75 25
      vertex -67.7628 -59.5175 25
      vertex 3.15366e-07 -112.5 25
    endloop
  endfacet
  facet normal 0 0 1
    outer loop
      vertex 56.0381 -13.6149 25
      vertex 52.8481 -13.6149 25
      vertex 71.3292 -60.6763 25
    endloop
  endfacet
  facet normal 0 0 1
    outer loop
      vertex 71.3292 -60.6763 25
      vertex 67.7628 -59.5175 25
      vertex 3.15366e-07 -112.5 25
    endloop
  endfacet
  facet normal 0 0 1
    outer loop
      vertex 67.7628 -59.5175 25
      vertex 7.72846e-08 -108.75 25
      vertex 3.15366e-07 -112.5 25
    endloop
  endfacet
  facet normal 0 0 1
    outer loop
      vertex -56.0381 -13.6149 25
      vertex -71.3292 -60.6763 25
      vertex -67.7628 -59.5175 25
    endloop
  endfacet
  facet normal 0 0 1
    outer loop
      vertex -67.7628 -59.5175 25
      vertex -52.8481 -13.6149 25
      vertex -56.0381 -13.6149 25
    endloop
  endfacet
  facet normal 0 0 1
    outer loop
      vertex 52.8481 -13.6149 25
      vertex 67.7628 -59.5175 25
      vertex 71.3292 -60.6763 25
    endloop
  endfacet
  facet normal 0 0.906308 0.422618
    outer loop
      vertex 56.0381 -13.6149 25
      vertex 53.3812 -5.43785 7.46429
      vertex 52.8481 -13.6149 25
    endloop
  endfacet
  facet normal 0 0.906308 0.422618
    outer loop
      vertex 52.8481 -13.6149 25
      vertex 53.3812 -5.43785 7.46429
      vertex 50.1912 -5.43785 7.46429
    endloop
  endfacet
  facet normal 0 -0.422618 0.906308
    outer loop
      vertex 50.1912 -5.43785 7.46429
      vertex 53.3812 -5.43785 7.46429
      vertex 49.8475 5.43785 12.5357
    endloop
  endfacet
  facet normal 0 -0.422618 0.906308
    outer loop
      vertex 46.6575 5.43785 12.5357
      vertex 50.1912 -5.43785 7.46429
      vertex 49.8475 5.43785 12.5357
    endloop
  endfacet
  facet normal 0 -0.906308 -0.422618
    outer loop
      vertex 49.8475 5.43785 12.5357
      vertex 51.736 -0.374347 25
      vertex 48.546 -0.374347 25
    endloop
  endfacet
  facet normal 0 -0.906308 -0.422618
    outer loop
      vertex 46.6575 5.43785 12.5357
      vertex 49.8475 5.43785 12.5357
      vertex 48.546 -0.374347 25
    endloop
  endfacet
endsolid OpenSCAD_Model
