solid OpenSCAD_Model
  facet normal 0 0 -1
    outer loop
      vertex 4.37449e-07 -87 0
      vertex 3.14096e-07 -90 0
      vertex -54.2102 -47.614 0
    endloop
  endfacet
  facet normal 0 0 -1
    outer loop
      vertex -33.5038 16.114 0
      vertex -35.2671 18.541 0
      vertex 35.2671 18.541 0
    endloop
  endfacet
  facet normal 0 0 -1
    outer loop
      vertex 54.2102 -47.614 0
      vertex 35.2671 18.541 0
      vertex 57.0634 -48.541 0
    endloop
  endfacet
  facet normal 0 0 -1
    outer loop
      vertex 33.5038 16.114 0
      vertex -33.5038 16.114 0
      vertex 35.2671 18.541 0
    endloop
  endfacet
  facet normal 0 0 -1
    outer loop
      vertex -57.0634 -48.541 0
      vertex -35.2671 18.541 0
      vertex -54.2102 -47.614 0
    endloop
  endfacet
  facet normal 0 0 -1
    outer loop
      vertex -57.0634 -48.541 0
      vertex -54.2102 -47.614 0
      vertex 3.14096e-07 -90 0
    endloop
  endfacet
  facet normal 0 0 -1
    outer loop
      vertex 54.2102 -47.614 0
      vertex 3.14096e-07 -90 0
      vertex 4.37449e-07 -87 0
    endloop
  endfacet
  facet normal 0 0 -1
    outer loop
      vertex 33.5038 16.114 0
      vertex 35.2671 18.541 0
      vertex 54.2102 -47.614 0
    endloop
  endfacet
  facet normal 0 0 -1
    outer loop
      vertex 3.14096e-07 -90 0
      vertex 54.2102 -47.614 0
      vertex 57.0634 -48.541 0
    endloop
  endfacet
  facet normal 0 0 -1
    outer loop
      vertex -54.2102 -47.614 0
      vertex -35.2671 18.541 0
      vertex -33.5038 16.114 0
    endloop
  endfacet
  facet normal -0.951057 0.309017 0
    outer loop
      vertex -39.9663 4.07839 11.9018
      vertex -35.2671 18.541 0
      vertex -42.6166 -4.07839 8.09822
    endloop
  endfacet
  facet normal -0.951057 0.309017 0
    outer loop
      vertex -57.0634 -48.541 0
      vertex -57.0634 -48.541 25
      vertex -42.6166 -4.07839 8.09822
    endloop
  endfacet
  facet normal -0.951057 0.309017 0
    outer loop
      vertex -57.0634 -48.541 0
      vertex -42.6166 -4.07839 8.09822
      vertex -35.2671 18.541 0
    endloop
  endfacet
  facet normal -0.951057 0.309017 0
    outer loop
      vertex -35.2671 18.541 0
      vertex -39.9663 4.07839 11.9018
      vertex -41.9509 -2.02941 25
    endloop
  endfacet
  facet normal -0.951057 0.309017 0
    outer loop
      vertex -35.2671 18.541 0
      vertex -41.9509 -2.02941 25
      vertex -35.2671 18.541 25
    endloop
  endfacet
  facet normal -0.951057 0.309017 0
    outer loop
      vertex -42.6166 -4.07839 8.09822
      vertex -57.0634 -48.541 25
      vertex -45.1774 -11.9598 25
    endloop
  endfacet
  facet normal -0.587785 -0.809017 0
    outer loop
      vertex -57.0634 -48.541 25
      vertex -57.0634 -48.541 0
      vertex 3.14096e-07 -90 0
    endloop
  endfacet
  facet normal -0.587785 -0.809017 0
    outer loop
      vertex 3.14096e-07 -90 25
      vertex -57.0634 -48.541 25
      vertex 3.14096e-07 -90 0
    endloop
  endfacet
  facet normal 0.587785 -0.809017 0
    outer loop
      vertex 3.14096e-07 -90 25
      vertex 3.14096e-07 -90 0
      vertex 57.0634 -48.541 0
    endloop
  endfacet
  facet normal 0.587785 -0.809017 0
    outer loop
      vertex 57.0634 -48.541 25
      vertex 3.14096e-07 -90 25
      vertex 57.0634 -48.541 0
    endloop
  endfacet
  facet normal 0.951057 0.309017 0
    outer loop
      vertex 39.9663 4.07839 11.9018
      vertex 35.2671 18.541 0
      vertex 35.2671 18.541 25
    endloop
  endfacet
  facet normal 0.951057 0.309017 0
    outer loop
      vertex 42.6166 -4.07839 8.09822
      vertex 35.2671 18.541 0
      vertex 39.9663 4.07839 11.9018
    endloop
  endfacet
  facet normal 0.951057 0.309017 0
    outer loop
      vertex 57.0634 -48.541 0
      vertex 35.2671 18.541 0
      vertex 42.6166 -4.07839 8.09822
    endloop
  endfacet
  facet normal 0.951057 0.309017 0
    outer loop
      vertex 57.0634 -48.541 25
      vertex 57.0634 -48.541 0
      vertex 45.1774 -11.9598 25
    endloop
  endfacet
  facet normal 0.951057 0.309017 0
    outer loop
      vertex 41.9509 -2.02941 25
      vertex 39.9663 4.07839 11.9018
      vertex 35.2671 18.541 25
    endloop
  endfacet
  facet normal 0.951057 0.309017 0
    outer loop
      vertex 42.6166 -4.07839 8.09822
      vertex 45.1774 -11.9598 25
      vertex 57.0634 -48.541 0
    endloop
  endfacet
  facet normal 8.02055e-10 1 0
    outer loop
      vertex -35.2671 18.541 0
      vertex -35.2671 18.541 25
      vertex 35.2671 18.541 0
    endloop
  endfacet
  facet normal 8.02055e-10 1 0
    outer loop
      vertex 35.2671 18.541 0
      vertex -35.2671 18.541 25
      vertex 35.2671 18.541 25
    endloop
  endfacet
  facet normal 0.951057 -0.309017 0
    outer loop
      vertex -33.5038 16.114 0
      vertex -33.5038 16.114 25
      vertex -39.3989 -2.02941 25
    endloop
  endfacet
  facet normal 0.951057 -0.309017 0
    outer loop
      vertex -40.0647 -4.07839 8.09822
      vertex -33.5038 16.114 0
      vertex -37.4144 4.07839 11.9018
    endloop
  endfacet
  facet normal 0.951057 -0.309017 0
    outer loop
      vertex -37.4144 4.07839 11.9018
      vertex -33.5038 16.114 0
      vertex -39.3989 -2.02941 25
    endloop
  endfacet
  facet normal 0.951057 -0.309017 0
    outer loop
      vertex -54.2102 -47.614 25
      vertex -33.5038 16.114 0
      vertex -40.0647 -4.07839 8.09822
    endloop
  endfacet
  facet normal 0.951057 -0.309017 0
    outer loop
      vertex -54.2102 -47.614 25
      vertex -40.0647 -4.07839 8.09822
      vertex -42.6255 -11.9598 25
    endloop
  endfacet
  facet normal 0.951057 -0.309017 0
    outer loop
      vertex -54.2102 -47.614 0
      vertex -33.5038 16.114 0
      vertex -54.2102 -47.614 25
    endloop
  endfacet
  facet normal -3.64071e-09 -1 0
    outer loop
      vertex 33.5038 16.114 0
      vertex 33.5038 16.114 25
      vertex -33.5038 16.114 25
    endloop
  endfacet
  facet normal -3.64071e-09 -1 0
    outer loop
      vertex -33.5038 16.114 0
      vertex 33.5038 16.114 0
      vertex -33.5038 16.114 25
    endloop
  endfacet
  facet normal -0.951057 -0.309017 0
    outer loop
      vertex 54.2102 -47.614 25
      vertex 42.6255 -11.9598 25
      vertex 54.2102 -47.614 0
    endloop
  endfacet
  facet normal -0.951057 -0.309017 0
    outer loop
      vertex 54.2102 -47.614 0
      vertex 42.6255 -11.9598 25
      vertex 40.0647 -4.07839 8.09822
    endloop
  endfacet
  facet normal -0.951057 -0.309017 0
    outer loop
      vertex 40.0647 -4.07839 8.09822
      vertex 33.5038 16.114 0
      vertex 54.2102 -47.614 0
    endloop
  endfacet
  facet normal -0.951057 -0.309017 0
    outer loop
      vertex 37.4144 4.07839 11.9018
      vertex 39.3989 -2.02941 25
      vertex 33.5038 16.114 25
    endloop
  endfacet
  facet normal -0.951057 -0.309017 0
    outer loop
      vertex 37.4144 4.07839 11.9018
      vertex 33.5038 16.114 25
      vertex 33.5038 16.114 0
    endloop
  endfacet
  facet normal -0.951057 -0.309017 0
    outer loop
      vertex 37.4144 4.07839 11.9018
      vertex 33.5038 16.114 0
      vertex 40.0647 -4.07839 8.09822
    endloop
  endfacet
  facet normal -0.587785 0.809017 0
    outer loop
      vertex 54.2102 -47.614 25
      vertex 54.2102 -47.614 0
      vertex 4.37449e-07 -87 25
    endloop
  endfacet
  facet normal -0.587785 0.809017 0
    outer loop
      vertex 4.37449e-07 -87 25
      vertex 54.2102 -47.614 0
      vertex 4.37449e-07 -87 0
    endloop
  endfacet
  facet normal 0.587785 0.809017 0
    outer loop
      vertex 4.37449e-07 -87 25
      vertex 4.37449e-07 -87 0
      vertex -54.2102 -47.614 25
    endloop
  endfacet
  facet normal 0.587785 0.809017 0
    outer loop
      vertex -54.2102 -47.614 25
      vertex 4.37449e-07 -87 0
      vertex -54.2102 -47.614 0
    endloop
  endfacet
  facet normal 0 0 1
    outer loop
      vertex -35.2671 18.541 25
      vertex -41.9509 -2.02941 25
      vertex -39.3989 -2.02941 25
    endloop
  endfacet
  facet normal 0 0 1
    outer loop
      vertex 33.5038 16.114 25
      vertex -35.2671 18.541 25
      vertex -33.5038 16.114 25
    endloop
  endfacet
  facet normal 0 0 1
    outer loop
      vertex -33.5038 16.114 25
      vertex -35.2671 18.541 25
      vertex -39.3989 -2.02941 25
    endloop
  endfacet
  facet normal 0 0 1
    outer loop
      vertex 35.2671 18.541 25
      vertex -35.2671 18.541 25
      vertex 33.5038 16.114 25
    endloop
  endfacet
  facet normal 0 0 1
    outer loop
      vertex 41.9509 -2.02941 25
      vertex 33.5038 16.114 25
      vertex 39.3989 -2.02941 25
    endloop
  endfacet
  facet normal 0 0 1
    outer loop
      vertex 35.2671 18.541 25
      vertex 33.5038 16.114 25
      vertex 41.9509 -2.02941 25
    endloop
  endfacet
  facet normal 0 -0.906308 -0.422618
    outer loop
      vertex -39.9663 4.07839 11.9018
      vertex -37.4144 4.07839 11.9018
      vertex -39.3989 -2.02941 25
    endloop
  endfacet
  facet normal 0 -0.906308 -0.422618
    outer loop
      vertex -41.9509 -2.02941 25
      vertex -39.9663 4.07839 11.9018
      vertex -39.3989 -2.02941 25
    endloop
  endfacet
  facet normal 0 -0.422618 0.906308
    outer loop
      vertex -40.0647 -4.07839 8.09822
      vertex -37.4144 4.07839 11.9018
      vertex -39.9663 4.07839 11.9018
    endloop
  endfacet
  facet normal 0 -0.422618 0.906308
    outer loop
      vertex -42.6166 -4.07839 8.09822
      vertex -40.0647 -4.07839 8.09822
      vertex -39.9663 4.07839 11.9018
    endloop
  endfacet
  facet normal 0 0.906308 0.422618
    outer loop
      vertex -40.0647 -4.07839 8.09822
      vertex -42.6166 -4.07839 8.09822
      vertex -42.6255 -11.9598 25
    endloop
  endfacet
  facet normal 0 0.906308 0.422618
    outer loop
      vertex -42.6255 -11.9598 25
      vertex -42.6166 -4.07839 8.09822
      vertex -45.1774 -11.9598 25
    endloop
  endfacet
  facet normal 0 0 1
    outer loop
      vertex -54.2102 -47.614 25
      vertex -57.0634 -48.541 25
      vertex 3.14096e-07 -90 25
    endloop
  endfacet
  facet normal 0 0 1
    outer loop
      vertex 4.37449e-07 -87 25
      vertex -54.2102 -47.614 25
      vertex 3.14096e-07 -90 25
    endloop
  endfacet
  facet normal 0 0 1
    outer loop
      vertex 45.1774 -11.9598 25
      vertex 42.6255 -11.9598 25
      vertex 57.0634 -48.541 25
    endloop
  endfacet
  facet normal 0 0 1
    outer loop
      vertex 57.0634 -48.541 25
      vertex 54.2102 -47.614 25
      vertex 3.14096e-07 -90 25
    endloop
  endfacet
  facet normal 0 0 1
    outer loop
      vertex 54.2102 -47.614 25
      vertex 4.37449e-07 -87 25
      vertex 3.14096e-07 -90 25
    endloop
  endfacet
  facet normal 0 0 1
    outer loop
      vertex -45.1774 -11.9598 25
      vertex -57.0634 -48.541 25
      vertex -54.2102 -47.614 25
    endloop
  endfacet
  facet normal 0 0 1
    outer loop
      vertex -54.2102 -47.614 25
      vertex -42.6255 -11.9598 25
      vertex -45.1774 -11.9598 25
    endloop
  endfacet
  facet normal 0 0 1
    outer loop
      vertex 42.6255 -11.9598 25
      vertex 54.2102 -47.614 25
      vertex 57.0634 -48.541 25
    endloop
  endfacet
  facet normal 0 0.906308 0.422618
    outer loop
      vertex 45.1774 -11.9598 25
      vertex 42.6166 -4.07839 8.09822
      vertex 42.6255 -11.9598 25
    endloop
  endfacet
  facet normal 0 0.906308 0.422618
    outer loop
      vertex 42.6255 -11.9598 25
      vertex 42.6166 -4.07839 8.09822
      vertex 40.0647 -4.07839 8.09822
    endloop
  endfacet
  facet normal 0 -0.422618 0.906308
    outer loop
      vertex 40.0647 -4.07839 8.09822
      vertex 42.6166 -4.07839 8.09822
      vertex 39.9663 4.07839 11.9018
    endloop
  endfacet
  facet normal 0 -0.422618 0.906308
    outer loop
      vertex 37.4144 4.07839 11.9018
      vertex 40.0647 -4.07839 8.09822
      vertex 39.9663 4.07839 11.9018
    endloop
  endfacet
  facet normal 0 -0.906308 -0.422618
    outer loop
      vertex 39.9663 4.07839 11.9018
      vertex 41.9509 -2.02941 25
      vertex 39.3989 -2.02941 25
    endloop
  endfacet
  facet normal 0 -0.906308 -0.422618
    outer loop
      vertex 37.4144 4.07839 11.9018
      vertex 39.9663 4.07839 11.9018
      vertex 39.3989 -2.02941 25
    endloop
  endfacet
endsolid OpenSCAD_Model
