solid OpenSCAD_Model
  facet normal 0 0 -1
    outer loop
      vertex 1.27474e-07 -53.7379 3.33333e-07
      vertex 1.48244e-07 -55.7379 3.33333e-07
      vertex -33.4378 -29.4439 3.33333e-07
    endloop
  endfacet
  facet normal 0 0 -1
    outer loop
      vertex -20.6657 9.86461 3.33333e-07
      vertex -21.8413 11.4826 3.33333e-07
      vertex 21.8413 11.4826 3.33333e-07
    endloop
  endfacet
  facet normal 0 0 -1
    outer loop
      vertex 33.4378 -29.4439 3.33333e-07
      vertex 21.8413 11.4826 3.33333e-07
      vertex 35.3399 -30.062 3.33333e-07
    endloop
  endfacet
  facet normal 0 0 -1
    outer loop
      vertex 20.6657 9.86461 3.33333e-07
      vertex -20.6657 9.86461 3.33333e-07
      vertex 21.8413 11.4826 3.33333e-07
    endloop
  endfacet
  facet normal 0 0 -1
    outer loop
      vertex -35.3399 -30.062 3.33333e-07
      vertex -21.8413 11.4826 3.33333e-07
      vertex -33.4378 -29.4439 3.33333e-07
    endloop
  endfacet
  facet normal 0 0 -1
    outer loop
      vertex -35.3399 -30.062 3.33333e-07
      vertex -33.4378 -29.4439 3.33333e-07
      vertex 1.48244e-07 -55.7379 3.33333e-07
    endloop
  endfacet
  facet normal 0 0 -1
    outer loop
      vertex 33.4378 -29.4439 3.33333e-07
      vertex 1.48244e-07 -55.7379 3.33333e-07
      vertex 1.27474e-07 -53.7379 3.33333e-07
    endloop
  endfacet
  facet normal 0 0 -1
    outer loop
      vertex 20.6657 9.86461 3.33333e-07
      vertex 21.8413 11.4826 3.33333e-07
      vertex 33.4378 -29.4439 3.33333e-07
    endloop
  endfacet
  facet normal 0 0 -1
    outer loop
      vertex 1.48244e-07 -55.7379 3.33333e-07
      vertex 33.4378 -29.4439 3.33333e-07
      vertex 35.3399 -30.062 3.33333e-07
    endloop
  endfacet
  facet normal 0 0 -1
    outer loop
      vertex -33.4378 -29.4439 3.33333e-07
      vertex -21.8413 11.4826 3.33333e-07
      vertex -20.6657 9.86461 3.33333e-07
    endloop
  endfacet
  facet normal -0.951057 0.309017 0
    outer loop
      vertex -23.9526 4.98469 7.79107
      vertex -21.8413 11.4826 3.33333e-07
      vertex -27.1919 -4.98469 3.14227
    endloop
  endfacet
  facet normal -0.951057 0.309017 0
    outer loop
      vertex -35.3399 -30.062 3.33333e-07
      vertex -35.3399 -30.062 13.6667
      vertex -27.1919 -4.98469 3.14227
    endloop
  endfacet
  facet normal -0.951057 0.309017 0
    outer loop
      vertex -35.3399 -30.062 3.33333e-07
      vertex -27.1919 -4.98469 3.14227
      vertex -21.8413 11.4826 3.33333e-07
    endloop
  endfacet
  facet normal -0.951057 0.309017 0
    outer loop
      vertex -21.8413 11.4826 3.33333e-07
      vertex -23.9526 4.98469 7.79107
      vertex -24.8428 2.24486 13.6667
    endloop
  endfacet
  facet normal -0.951057 0.309017 0
    outer loop
      vertex -21.8413 11.4826 3.33333e-07
      vertex -24.8428 2.24486 13.6667
      vertex -21.8413 11.4826 13.6667
    endloop
  endfacet
  facet normal -0.951057 0.309017 0
    outer loop
      vertex -27.1919 -4.98469 3.14227
      vertex -35.3399 -30.062 13.6667
      vertex -28.7864 -9.8923 13.6667
    endloop
  endfacet
  facet normal -0.587785 -0.809017 0
    outer loop
      vertex -35.3399 -30.062 13.6667
      vertex -35.3399 -30.062 3.33333e-07
      vertex 1.48244e-07 -55.7379 3.33333e-07
    endloop
  endfacet
  facet normal -0.587785 -0.809017 0
    outer loop
      vertex 1.48244e-07 -55.7379 13.6667
      vertex -35.3399 -30.062 13.6667
      vertex 1.48244e-07 -55.7379 3.33333e-07
    endloop
  endfacet
  facet normal 0.587785 -0.809017 0
    outer loop
      vertex 1.48244e-07 -55.7379 13.6667
      vertex 1.48244e-07 -55.7379 3.33333e-07
      vertex 35.3399 -30.062 3.33333e-07
    endloop
  endfacet
  facet normal 0.587785 -0.809017 0
    outer loop
      vertex 35.3399 -30.062 13.6667
      vertex 1.48244e-07 -55.7379 13.6667
      vertex 35.3399 -30.062 3.33333e-07
    endloop
  endfacet
  facet normal 0.951057 0.309017 0
    outer loop
      vertex 23.9526 4.98469 7.79107
      vertex 21.8413 11.4826 3.33333e-07
      vertex 21.8413 11.4826 13.6667
    endloop
  endfacet
  facet normal 0.951057 0.309017 0
    outer loop
      vertex 27.1919 -4.98469 3.14227
      vertex 21.8413 11.4826 3.33333e-07
      vertex 23.9526 4.98469 7.79107
    endloop
  endfacet
  facet normal 0.951057 0.309017 0
    outer loop
      vertex 35.3399 -30.062 3.33333e-07
      vertex 21.8413 11.4826 3.33333e-07
      vertex 27.1919 -4.98469 3.14227
    endloop
  endfacet
  facet normal 0.951057 0.309017 0
    outer loop
      vertex 35.3399 -30.062 13.6667
      vertex 35.3399 -30.062 3.33333e-07
      vertex 28.7864 -9.8923 13.6667
    endloop
  endfacet
  facet normal 0.951057 0.309017 0
    outer loop
      vertex 24.8428 2.24486 13.6667
      vertex 23.9526 4.98469 7.79107
      vertex 21.8413 11.4826 13.6667
    endloop
  endfacet
  facet normal 0.951057 0.309017 0
    outer loop
      vertex 27.1919 -4.98469 3.14227
      vertex 28.7864 -9.8923 13.6667
      vertex 35.3399 -30.062 3.33333e-07
    endloop
  endfacet
  facet normal -1.11647e-08 1 0
    outer loop
      vertex -21.8413 11.4826 3.33333e-07
      vertex -21.8413 11.4826 13.6667
      vertex 21.8413 11.4826 3.33333e-07
    endloop
  endfacet
  facet normal -1.11647e-08 1 0
    outer loop
      vertex 21.8413 11.4826 3.33333e-07
      vertex -21.8413 11.4826 13.6667
      vertex 21.8413 11.4826 13.6667
    endloop
  endfacet
  facet normal 1.10722e-09 -1 0
    outer loop
      vertex 20.6657 9.86461 3.33333e-07
      vertex 20.6657 9.86461 13.6667
      vertex -20.6657 9.86461 13.6667
    endloop
  endfacet
  facet normal 1.10722e-09 -1 0
    outer loop
      vertex -20.6657 9.86461 3.33333e-07
      vertex 20.6657 9.86461 3.33333e-07
      vertex -20.6657 9.86461 13.6667
    endloop
  endfacet
  facet normal 0.951057 -0.309017 0
    outer loop
      vertex -20.6657 9.86461 3.33333e-07
      vertex -20.6657 9.86461 13.6667
      vertex -23.1415 2.24486 13.6667
    endloop
  endfacet
  facet normal 0.951057 -0.309017 0
    outer loop
      vertex -25.4905 -4.98469 3.14227
      vertex -20.6657 9.86461 3.33333e-07
      vertex -22.2513 4.98469 7.79107
    endloop
  endfacet
  facet normal 0.951057 -0.309017 0
    outer loop
      vertex -22.2513 4.98469 7.79107
      vertex -20.6657 9.86461 3.33333e-07
      vertex -23.1415 2.24486 13.6667
    endloop
  endfacet
  facet normal 0.951057 -0.309017 0
    outer loop
      vertex -33.4378 -29.4439 3.33333e-07
      vertex -20.6657 9.86461 3.33333e-07
      vertex -25.4905 -4.98469 3.14227
    endloop
  endfacet
  facet normal 0.951057 -0.309017 0
    outer loop
      vertex -33.4378 -29.4439 13.6667
      vertex -25.4905 -4.98469 3.14227
      vertex -27.0851 -9.8923 13.6667
    endloop
  endfacet
  facet normal 0.951057 -0.309017 0
    outer loop
      vertex -33.4378 -29.4439 3.33333e-07
      vertex -25.4905 -4.98469 3.14227
      vertex -33.4378 -29.4439 13.6667
    endloop
  endfacet
  facet normal -0.951057 -0.309017 0
    outer loop
      vertex 33.4378 -29.4439 13.6667
      vertex 27.0851 -9.8923 13.6667
      vertex 33.4378 -29.4439 3.33333e-07
    endloop
  endfacet
  facet normal -0.951057 -0.309017 0
    outer loop
      vertex 33.4378 -29.4439 3.33333e-07
      vertex 27.0851 -9.8923 13.6667
      vertex 25.4905 -4.98469 3.14227
    endloop
  endfacet
  facet normal -0.951057 -0.309017 0
    outer loop
      vertex 25.4905 -4.98469 3.14227
      vertex 20.6657 9.86461 3.33333e-07
      vertex 33.4378 -29.4439 3.33333e-07
    endloop
  endfacet
  facet normal -0.951057 -0.309017 0
    outer loop
      vertex 22.2513 4.98469 7.79107
      vertex 23.1415 2.24486 13.6667
      vertex 20.6657 9.86461 13.6667
    endloop
  endfacet
  facet normal -0.951057 -0.309017 0
    outer loop
      vertex 22.2513 4.98469 7.79107
      vertex 20.6657 9.86461 13.6667
      vertex 20.6657 9.86461 3.33333e-07
    endloop
  endfacet
  facet normal -0.951057 -0.309017 0
    outer loop
      vertex 22.2513 4.98469 7.79107
      vertex 20.6657 9.86461 3.33333e-07
      vertex 25.4905 -4.98469 3.14227
    endloop
  endfacet
  facet normal -0.587785 0.809017 0
    outer loop
      vertex 33.4378 -29.4439 13.6667
      vertex 33.4378 -29.4439 3.33333e-07
      vertex 1.27474e-07 -53.7379 13.6667
    endloop
  endfacet
  facet normal -0.587785 0.809017 0
    outer loop
      vertex 1.27474e-07 -53.7379 13.6667
      vertex 33.4378 -29.4439 3.33333e-07
      vertex 1.27474e-07 -53.7379 3.33333e-07
    endloop
  endfacet
  facet normal 0.587785 0.809017 0
    outer loop
      vertex 1.27474e-07 -53.7379 13.6667
      vertex 1.27474e-07 -53.7379 3.33333e-07
      vertex -33.4378 -29.4439 13.6667
    endloop
  endfacet
  facet normal 0.587785 0.809017 0
    outer loop
      vertex -33.4378 -29.4439 13.6667
      vertex 1.27474e-07 -53.7379 3.33333e-07
      vertex -33.4378 -29.4439 3.33333e-07
    endloop
  endfacet
  facet normal 0 0 1
    outer loop
      vertex -21.8413 11.4826 13.6667
      vertex -24.8428 2.24486 13.6667
      vertex -23.1415 2.24486 13.6667
    endloop
  endfacet
  facet normal 0 0 1
    outer loop
      vertex 20.6657 9.86461 13.6667
      vertex -21.8413 11.4826 13.6667
      vertex -20.6657 9.86461 13.6667
    endloop
  endfacet
  facet normal 0 0 1
    outer loop
      vertex -20.6657 9.86461 13.6667
      vertex -21.8413 11.4826 13.6667
      vertex -23.1415 2.24486 13.6667
    endloop
  endfacet
  facet normal 0 0 1
    outer loop
      vertex 21.8413 11.4826 13.6667
      vertex -21.8413 11.4826 13.6667
      vertex 20.6657 9.86461 13.6667
    endloop
  endfacet
  facet normal 0 0 1
    outer loop
      vertex 24.8428 2.24486 13.6667
      vertex 20.6657 9.86461 13.6667
      vertex 23.1415 2.24486 13.6667
    endloop
  endfacet
  facet normal 0 0 1
    outer loop
      vertex 21.8413 11.4826 13.6667
      vertex 20.6657 9.86461 13.6667
      vertex 24.8428 2.24486 13.6667
    endloop
  endfacet
  facet normal 0 -0.906308 -0.422618
    outer loop
      vertex -23.9526 4.98469 7.79107
      vertex -22.2513 4.98469 7.79107
      vertex -23.1415 2.24486 13.6667
    endloop
  endfacet
  facet normal 0 -0.906308 -0.422618
    outer loop
      vertex -24.8428 2.24486 13.6667
      vertex -23.9526 4.98469 7.79107
      vertex -23.1415 2.24486 13.6667
    endloop
  endfacet
  facet normal 0 -0.422618 0.906308
    outer loop
      vertex -25.4905 -4.98469 3.14227
      vertex -22.2513 4.98469 7.79107
      vertex -23.9526 4.98469 7.79107
    endloop
  endfacet
  facet normal 0 -0.422618 0.906308
    outer loop
      vertex -27.1919 -4.98469 3.14227
      vertex -25.4905 -4.98469 3.14227
      vertex -23.9526 4.98469 7.79107
    endloop
  endfacet
  facet normal 0 0.906308 0.422618
    outer loop
      vertex -25.4905 -4.98469 3.14227
      vertex -27.1919 -4.98469 3.14227
      vertex -27.0851 -9.8923 13.6667
    endloop
  endfacet
  facet normal 0 0.906308 0.422618
    outer loop
      vertex -27.0851 -9.8923 13.6667
      vertex -27.1919 -4.98469 3.14227
      vertex -28.7864 -9.8923 13.6667
    endloop
  endfacet
  facet normal 0 0 1
    outer loop
      vertex -33.4378 -29.4439 13.6667
      vertex -35.3399 -30.062 13.6667
      vertex 1.48244e-07 -55.7379 13.6667
    endloop
  endfacet
  facet normal 0 0 1
    outer loop
      vertex 1.27474e-07 -53.7379 13.6667
      vertex -33.4378 -29.4439 13.6667
      vertex 1.48244e-07 -55.7379 13.6667
    endloop
  endfacet
  facet normal 0 0 1
    outer loop
      vertex 28.7864 -9.8923 13.6667
      vertex 27.0851 -9.8923 13.6667
      vertex 35.3399 -30.062 13.6667
    endloop
  endfacet
  facet normal 0 0 1
    outer loop
      vertex 27.0851 -9.8923 13.6667
      vertex 33.4378 -29.4439 13.6667
      vertex 35.3399 -30.062 13.6667
    endloop
  endfacet
  facet normal 0 0 1
    outer loop
      vertex 35.3399 -30.062 13.6667
      vertex 1.27474e-07 -53.7379 13.6667
      vertex 1.48244e-07 -55.7379 13.6667
    endloop
  endfacet
  facet normal 0 0 1
    outer loop
      vertex -28.7864 -9.8923 13.6667
      vertex -35.3399 -30.062 13.6667
      vertex -33.4378 -29.4439 13.6667
    endloop
  endfacet
  facet normal 0 0 1
    outer loop
      vertex 33.4378 -29.4439 13.6667
      vertex 1.27474e-07 -53.7379 13.6667
      vertex 35.3399 -30.062 13.6667
    endloop
  endfacet
  facet normal 0 0 1
    outer loop
      vertex -33.4378 -29.4439 13.6667
      vertex -27.0851 -9.8923 13.6667
      vertex -28.7864 -9.8923 13.6667
    endloop
  endfacet
  facet normal 0 0.906308 0.422618
    outer loop
      vertex 28.7864 -9.8923 13.6667
      vertex 27.1919 -4.98469 3.14227
      vertex 27.0851 -9.8923 13.6667
    endloop
  endfacet
  facet normal 0 0.906308 0.422618
    outer loop
      vertex 27.0851 -9.8923 13.6667
      vertex 27.1919 -4.98469 3.14227
      vertex 25.4905 -4.98469 3.14227
    endloop
  endfacet
  facet normal 0 -0.422618 0.906308
    outer loop
      vertex 25.4905 -4.98469 3.14227
      vertex 27.1919 -4.98469 3.14227
      vertex 23.9526 4.98469 7.79107
    endloop
  endfacet
  facet normal 0 -0.422618 0.906308
    outer loop
      vertex 22.2513 4.98469 7.79107
      vertex 25.4905 -4.98469 3.14227
      vertex 23.9526 4.98469 7.79107
    endloop
  endfacet
  facet normal 0 -0.906308 -0.422618
    outer loop
      vertex 23.9526 4.98469 7.79107
      vertex 24.8428 2.24486 13.6667
      vertex 23.1415 2.24486 13.6667
    endloop
  endfacet
  facet normal 0 -0.906308 -0.422618
    outer loop
      vertex 22.2513 4.98469 7.79107
      vertex 23.9526 4.98469 7.79107
      vertex 23.1415 2.24486 13.6667
    endloop
  endfacet
endsolid OpenSCAD_Model
