solid OpenSCAD_Model
  facet normal 0 0 -1
    outer loop
      vertex -1.76425e-07 -111.702 0
      vertex -2.70821e-07 -115.554 0
      vertex -69.6025 -61.1333 0
    endloop
  endfacet
  facet normal 0 0 -1
    outer loop
      vertex -43.0167 20.6893 0
      vertex -45.2807 23.8055 0
      vertex 45.2807 23.8055 0
    endloop
  endfacet
  facet normal 0 0 -1
    outer loop
      vertex 69.6025 -61.1333 0
      vertex 45.2807 23.8055 0
      vertex 73.2657 -62.3236 0
    endloop
  endfacet
  facet normal 0 0 -1
    outer loop
      vertex 43.0167 20.6893 0
      vertex -43.0167 20.6893 0
      vertex 45.2807 23.8055 0
    endloop
  endfacet
  facet normal 0 0 -1
    outer loop
      vertex -73.2657 -62.3236 0
      vertex -45.2807 23.8055 0
      vertex -69.6025 -61.1333 0
    endloop
  endfacet
  facet normal 0 0 -1
    outer loop
      vertex -73.2657 -62.3236 0
      vertex -69.6025 -61.1333 0
      vertex -2.70821e-07 -115.554 0
    endloop
  endfacet
  facet normal 0 0 -1
    outer loop
      vertex 69.6025 -61.1333 0
      vertex -2.70821e-07 -115.554 0
      vertex -1.76425e-07 -111.702 0
    endloop
  endfacet
  facet normal 0 0 -1
    outer loop
      vertex 43.0167 20.6893 0
      vertex 45.2807 23.8055 0
      vertex 69.6025 -61.1333 0
    endloop
  endfacet
  facet normal 0 0 -1
    outer loop
      vertex -2.70821e-07 -115.554 0
      vertex 69.6025 -61.1333 0
      vertex 73.2657 -62.3236 0
    endloop
  endfacet
  facet normal 0 0 -1
    outer loop
      vertex -69.6025 -61.1333 0
      vertex -45.2807 23.8055 0
      vertex -43.0167 20.6893 0
    endloop
  endfacet
  facet normal -0.951057 0.309017 0
    outer loop
      vertex -73.2657 -62.3236 0
      vertex -73.2657 -62.3236 25
      vertex -45.2807 23.8055 0
    endloop
  endfacet
  facet normal -0.951057 0.309017 0
    outer loop
      vertex -54.3407 -4.07839 8.09822
      vertex -73.2657 -62.3236 25
      vertex -56.9016 -11.9598 25
    endloop
  endfacet
  facet normal -0.951057 0.309017 0
    outer loop
      vertex -45.2807 23.8055 0
      vertex -73.2657 -62.3236 25
      vertex -54.3407 -4.07839 8.09822
    endloop
  endfacet
  facet normal -0.951057 0.309017 0
    outer loop
      vertex -45.2807 23.8055 0
      vertex -54.3407 -4.07839 8.09822
      vertex -51.6904 4.07839 11.9018
    endloop
  endfacet
  facet normal -0.951057 0.309017 0
    outer loop
      vertex -45.2807 23.8055 0
      vertex -53.675 -2.02941 25
      vertex -45.2807 23.8055 25
    endloop
  endfacet
  facet normal -0.951057 0.309017 0
    outer loop
      vertex -53.675 -2.02941 25
      vertex -45.2807 23.8055 0
      vertex -51.6904 4.07839 11.9018
    endloop
  endfacet
  facet normal -0.587785 -0.809017 0
    outer loop
      vertex -73.2657 -62.3236 25
      vertex -73.2657 -62.3236 0
      vertex -2.70821e-07 -115.554 0
    endloop
  endfacet
  facet normal -0.587785 -0.809017 0
    outer loop
      vertex -2.70821e-07 -115.554 25
      vertex -73.2657 -62.3236 25
      vertex -2.70821e-07 -115.554 0
    endloop
  endfacet
  facet normal 0.587785 -0.809017 0
    outer loop
      vertex -2.70821e-07 -115.554 25
      vertex -2.70821e-07 -115.554 0
      vertex 73.2657 -62.3236 0
    endloop
  endfacet
  facet normal 0.587785 -0.809017 0
    outer loop
      vertex 73.2657 -62.3236 25
      vertex -2.70821e-07 -115.554 25
      vertex 73.2657 -62.3236 0
    endloop
  endfacet
  facet normal 0.951057 0.309017 0
    outer loop
      vertex 51.6904 4.07839 11.9018
      vertex 45.2807 23.8055 0
      vertex 45.2807 23.8055 25
    endloop
  endfacet
  facet normal 0.951057 0.309017 0
    outer loop
      vertex 54.3407 -4.07839 8.09822
      vertex 45.2807 23.8055 0
      vertex 51.6904 4.07839 11.9018
    endloop
  endfacet
  facet normal 0.951057 0.309017 0
    outer loop
      vertex 73.2657 -62.3236 0
      vertex 45.2807 23.8055 0
      vertex 54.3407 -4.07839 8.09822
    endloop
  endfacet
  facet normal 0.951057 0.309017 0
    outer loop
      vertex 73.2657 -62.3236 25
      vertex 73.2657 -62.3236 0
      vertex 56.9016 -11.9598 25
    endloop
  endfacet
  facet normal 0.951057 0.309017 0
    outer loop
      vertex 53.675 -2.02941 25
      vertex 51.6904 4.07839 11.9018
      vertex 45.2807 23.8055 25
    endloop
  endfacet
  facet normal 0.951057 0.309017 0
    outer loop
      vertex 54.3407 -4.07839 8.09822
      vertex 56.9016 -11.9598 25
      vertex 73.2657 -62.3236 0
    endloop
  endfacet
  facet normal -2.22565e-09 1 0
    outer loop
      vertex -45.2807 23.8055 0
      vertex -45.2807 23.8055 25
      vertex 45.2807 23.8055 0
    endloop
  endfacet
  facet normal -2.22565e-09 1 0
    outer loop
      vertex 45.2807 23.8055 0
      vertex -45.2807 23.8055 25
      vertex 45.2807 23.8055 25
    endloop
  endfacet
  facet normal 3.17941e-09 -1 0
    outer loop
      vertex 43.0167 20.6893 0
      vertex 43.0167 20.6893 25
      vertex -43.0167 20.6893 25
    endloop
  endfacet
  facet normal 3.17941e-09 -1 0
    outer loop
      vertex -43.0167 20.6893 0
      vertex 43.0167 20.6893 0
      vertex -43.0167 20.6893 25
    endloop
  endfacet
  facet normal 0.951057 -0.309017 0
    outer loop
      vertex -43.0167 20.6893 0
      vertex -43.0167 20.6893 25
      vertex -50.3984 -2.02941 25
    endloop
  endfacet
  facet normal 0.951057 -0.309017 0
    outer loop
      vertex -51.0642 -4.07839 8.09822
      vertex -43.0167 20.6893 0
      vertex -48.4139 4.07839 11.9018
    endloop
  endfacet
  facet normal 0.951057 -0.309017 0
    outer loop
      vertex -48.4139 4.07839 11.9018
      vertex -43.0167 20.6893 0
      vertex -50.3984 -2.02941 25
    endloop
  endfacet
  facet normal 0.951057 -0.309017 0
    outer loop
      vertex -69.6025 -61.1333 25
      vertex -43.0167 20.6893 0
      vertex -51.0642 -4.07839 8.09822
    endloop
  endfacet
  facet normal 0.951057 -0.309017 0
    outer loop
      vertex -69.6025 -61.1333 25
      vertex -51.0642 -4.07839 8.09822
      vertex -53.625 -11.9598 25
    endloop
  endfacet
  facet normal 0.951057 -0.309017 0
    outer loop
      vertex -69.6025 -61.1333 0
      vertex -43.0167 20.6893 0
      vertex -69.6025 -61.1333 25
    endloop
  endfacet
  facet normal -0.951057 -0.309017 0
    outer loop
      vertex 69.6025 -61.1333 25
      vertex 53.625 -11.9598 25
      vertex 69.6025 -61.1333 0
    endloop
  endfacet
  facet normal -0.951057 -0.309017 0
    outer loop
      vertex 69.6025 -61.1333 0
      vertex 53.625 -11.9598 25
      vertex 51.0642 -4.07839 8.09822
    endloop
  endfacet
  facet normal -0.951057 -0.309017 0
    outer loop
      vertex 51.0642 -4.07839 8.09822
      vertex 43.0167 20.6893 0
      vertex 69.6025 -61.1333 0
    endloop
  endfacet
  facet normal -0.951057 -0.309017 0
    outer loop
      vertex 48.4139 4.07839 11.9018
      vertex 50.3984 -2.02941 25
      vertex 43.0167 20.6893 25
    endloop
  endfacet
  facet normal -0.951057 -0.309017 0
    outer loop
      vertex 48.4139 4.07839 11.9018
      vertex 43.0167 20.6893 25
      vertex 43.0167 20.6893 0
    endloop
  endfacet
  facet normal -0.951057 -0.309017 0
    outer loop
      vertex 48.4139 4.07839 11.9018
      vertex 43.0167 20.6893 0
      vertex 51.0642 -4.07839 8.09822
    endloop
  endfacet
  facet normal -0.587785 0.809017 0
    outer loop
      vertex 69.6025 -61.1333 25
      vertex 69.6025 -61.1333 0
      vertex -1.76425e-07 -111.702 25
    endloop
  endfacet
  facet normal -0.587785 0.809017 0
    outer loop
      vertex -1.76425e-07 -111.702 25
      vertex 69.6025 -61.1333 0
      vertex -1.76425e-07 -111.702 0
    endloop
  endfacet
  facet normal 0.587785 0.809017 0
    outer loop
      vertex -1.76425e-07 -111.702 25
      vertex -1.76425e-07 -111.702 0
      vertex -69.6025 -61.1333 25
    endloop
  endfacet
  facet normal 0.587785 0.809017 0
    outer loop
      vertex -69.6025 -61.1333 25
      vertex -1.76425e-07 -111.702 0
      vertex -69.6025 -61.1333 0
    endloop
  endfacet
  facet normal 0 0 1
    outer loop
      vertex -45.2807 23.8055 25
      vertex -53.675 -2.02941 25
      vertex -50.3984 -2.02941 25
    endloop
  endfacet
  facet normal 0 0 1
    outer loop
      vertex 43.0167 20.6893 25
      vertex -45.2807 23.8055 25
      vertex -43.0167 20.6893 25
    endloop
  endfacet
  facet normal 0 0 1
    outer loop
      vertex -43.0167 20.6893 25
      vertex -45.2807 23.8055 25
      vertex -50.3984 -2.02941 25
    endloop
  endfacet
  facet normal 0 0 1
    outer loop
      vertex 45.2807 23.8055 25
      vertex -45.2807 23.8055 25
      vertex 43.0167 20.6893 25
    endloop
  endfacet
  facet normal 0 0 1
    outer loop
      vertex 53.675 -2.02941 25
      vertex 43.0167 20.6893 25
      vertex 50.3984 -2.02941 25
    endloop
  endfacet
  facet normal 0 0 1
    outer loop
      vertex 45.2807 23.8055 25
      vertex 43.0167 20.6893 25
      vertex 53.675 -2.02941 25
    endloop
  endfacet
  facet normal 0 -0.906308 -0.422618
    outer loop
      vertex -51.6904 4.07839 11.9018
      vertex -48.4139 4.07839 11.9018
      vertex -50.3984 -2.02941 25
    endloop
  endfacet
  facet normal 0 -0.906308 -0.422618
    outer loop
      vertex -53.675 -2.02941 25
      vertex -51.6904 4.07839 11.9018
      vertex -50.3984 -2.02941 25
    endloop
  endfacet
  facet normal 0 -0.422618 0.906308
    outer loop
      vertex -51.0642 -4.07839 8.09822
      vertex -48.4139 4.07839 11.9018
      vertex -51.6904 4.07839 11.9018
    endloop
  endfacet
  facet normal 0 -0.422618 0.906308
    outer loop
      vertex -54.3407 -4.07839 8.09822
      vertex -51.0642 -4.07839 8.09822
      vertex -51.6904 4.07839 11.9018
    endloop
  endfacet
  facet normal 0 0.906308 0.422618
    outer loop
      vertex -51.0642 -4.07839 8.09822
      vertex -54.3407 -4.07839 8.09822
      vertex -53.625 -11.9598 25
    endloop
  endfacet
  facet normal 0 0.906308 0.422618
    outer loop
      vertex -53.625 -11.9598 25
      vertex -54.3407 -4.07839 8.09822
      vertex -56.9016 -11.9598 25
    endloop
  endfacet
  facet normal 0 0 1
    outer loop
      vertex -69.6025 -61.1333 25
      vertex -73.2657 -62.3236 25
      vertex -2.70821e-07 -115.554 25
    endloop
  endfacet
  facet normal 0 0 1
    outer loop
      vertex -1.76425e-07 -111.702 25
      vertex -69.6025 -61.1333 25
      vertex -2.70821e-07 -115.554 25
    endloop
  endfacet
  facet normal 0 0 1
    outer loop
      vertex 56.9016 -11.9598 25
      vertex 53.625 -11.9598 25
      vertex 73.2657 -62.3236 25
    endloop
  endfacet
  facet normal 0 0 1
    outer loop
      vertex 73.2657 -62.3236 25
      vertex 69.6025 -61.1333 25
      vertex -2.70821e-07 -115.554 25
    endloop
  endfacet
  facet normal 0 0 1
    outer loop
      vertex 69.6025 -61.1333 25
      vertex -1.76425e-07 -111.702 25
      vertex -2.70821e-07 -115.554 25
    endloop
  endfacet
  facet normal 0 0 1
    outer loop
      vertex -56.9016 -11.9598 25
      vertex -73.2657 -62.3236 25
      vertex -69.6025 -61.1333 25
    endloop
  endfacet
  facet normal 0 0 1
    outer loop
      vertex -69.6025 -61.1333 25
      vertex -53.625 -11.9598 25
      vertex -56.9016 -11.9598 25
    endloop
  endfacet
  facet normal 0 0 1
    outer loop
      vertex 53.625 -11.9598 25
      vertex 69.6025 -61.1333 25
      vertex 73.2657 -62.3236 25
    endloop
  endfacet
  facet normal 0 0.906308 0.422618
    outer loop
      vertex 56.9016 -11.9598 25
      vertex 54.3407 -4.07839 8.09822
      vertex 53.625 -11.9598 25
    endloop
  endfacet
  facet normal 0 0.906308 0.422618
    outer loop
      vertex 53.625 -11.9598 25
      vertex 54.3407 -4.07839 8.09822
      vertex 51.0642 -4.07839 8.09822
    endloop
  endfacet
  facet normal 0 -0.422618 0.906308
    outer loop
      vertex 51.0642 -4.07839 8.09822
      vertex 54.3407 -4.07839 8.09822
      vertex 51.6904 4.07839 11.9018
    endloop
  endfacet
  facet normal 0 -0.422618 0.906308
    outer loop
      vertex 48.4139 4.07839 11.9018
      vertex 51.0642 -4.07839 8.09822
      vertex 51.6904 4.07839 11.9018
    endloop
  endfacet
  facet normal 0 -0.906308 -0.422618
    outer loop
      vertex 51.6904 4.07839 11.9018
      vertex 53.675 -2.02941 25
      vertex 50.3984 -2.02941 25
    endloop
  endfacet
  facet normal 0 -0.906308 -0.422618
    outer loop
      vertex 48.4139 4.07839 11.9018
      vertex 51.6904 4.07839 11.9018
      vertex 50.3984 -2.02941 25
    endloop
  endfacet
endsolid OpenSCAD_Model
