solid OpenSCAD_Model
  facet normal 0 1 0
    outer loop
      vertex -88.5 -6 -53.1667
      vertex -96 -6 -53.1667
      vertex -88.5 -6 52.1667
    endloop
  endfacet
  facet normal 0 1 0
    outer loop
      vertex -88.5 -6 52.1667
      vertex -96 -6 -53.1667
      vertex -96 -6 52.1667
    endloop
  endfacet
  facet normal 0 1 0
    outer loop
      vertex -88.5 -6 52.1667
      vertex -96 -6 52.1667
      vertex -93.5 -6 52.1667
    endloop
  endfacet
  facet normal -2.22045e-16 -4.41674e-17 1
    outer loop
      vertex -88.5 -6 52.1667
      vertex -93.5 -6 52.1667
      vertex -93.8806 -7.91342 52.1667
    endloop
  endfacet
  facet normal -2.22045e-16 -4.41674e-17 1
    outer loop
      vertex -88.5 -7.91342 52.1667
      vertex -88.5 -6 52.1667
      vertex -93.8806 -7.91342 52.1667
    endloop
  endfacet
  facet normal -4.44089e-16 0 1
    outer loop
      vertex -96 6 52.1667
      vertex -96.5866 10.6194 52.1667
      vertex -96 -6 52.1667
    endloop
  endfacet
  facet normal -4.44089e-16 0 1
    outer loop
      vertex -93.8806 -7.91342 52.1667
      vertex -93.5 -6 52.1667
      vertex -96 -6 52.1667
    endloop
  endfacet
  facet normal -4.44089e-16 0 1
    outer loop
      vertex -103.5 -6 52.1667
      vertex -93.8806 -7.91342 52.1667
      vertex -96 -6 52.1667
    endloop
  endfacet
  facet normal -4.44089e-16 0 1
    outer loop
      vertex -93.5 6 52.1667
      vertex -93.8806 7.91342 52.1667
      vertex -96 6 52.1667
    endloop
  endfacet
  facet normal -4.44089e-16 0 1
    outer loop
      vertex -93.8806 7.91342 52.1667
      vertex -94.9645 9.53553 52.1667
      vertex -96 6 52.1667
    endloop
  endfacet
  facet normal -4.44089e-16 0 1
    outer loop
      vertex -94.9645 9.53553 52.1667
      vertex -96.5866 10.6194 52.1667
      vertex -96 6 52.1667
    endloop
  endfacet
  facet normal -4.44089e-16 0 1
    outer loop
      vertex -96.5866 10.6194 52.1667
      vertex -98.5 11 52.1667
      vertex -96 -6 52.1667
    endloop
  endfacet
  facet normal -4.44089e-16 0 1
    outer loop
      vertex -98.5 11 52.1667
      vertex -100.413 10.6194 52.1667
      vertex -96 -6 52.1667
    endloop
  endfacet
  facet normal -4.44089e-16 0 1
    outer loop
      vertex -100.413 10.6194 52.1667
      vertex -102.036 9.53553 52.1667
      vertex -96 -6 52.1667
    endloop
  endfacet
  facet normal -4.44089e-16 0 1
    outer loop
      vertex -102.036 9.53553 52.1667
      vertex -103.119 7.91342 52.1667
      vertex -96 -6 52.1667
    endloop
  endfacet
  facet normal -4.44089e-16 0 1
    outer loop
      vertex -103.119 7.91342 52.1667
      vertex -103.5 6 52.1667
      vertex -96 -6 52.1667
    endloop
  endfacet
  facet normal -4.44089e-16 0 1
    outer loop
      vertex -103.5 6 52.1667
      vertex -103.5 -6 52.1667
      vertex -96 -6 52.1667
    endloop
  endfacet
  facet normal -4.44089e-16 0 1
    outer loop
      vertex -103.5 -6 52.1667
      vertex -103.119 -7.91342 52.1667
      vertex -93.8806 -7.91342 52.1667
    endloop
  endfacet
  facet normal -4.44089e-16 0 1
    outer loop
      vertex -103.119 -7.91342 52.1667
      vertex -102.036 -9.53553 52.1667
      vertex -93.8806 -7.91342 52.1667
    endloop
  endfacet
  facet normal -4.44089e-16 0 1
    outer loop
      vertex -102.036 -9.53553 52.1667
      vertex -100.413 -10.6194 52.1667
      vertex -93.8806 -7.91342 52.1667
    endloop
  endfacet
  facet normal -4.44089e-16 0 1
    outer loop
      vertex -100.413 -10.6194 52.1667
      vertex -98.5 -11 52.1667
      vertex -93.8806 -7.91342 52.1667
    endloop
  endfacet
  facet normal -4.44089e-16 0 1
    outer loop
      vertex -98.5 -11 52.1667
      vertex -96.5866 -10.6194 52.1667
      vertex -93.8806 -7.91342 52.1667
    endloop
  endfacet
  facet normal -4.44089e-16 0 1
    outer loop
      vertex -96.5866 -10.6194 52.1667
      vertex -94.9645 -9.53553 52.1667
      vertex -93.8806 -7.91342 52.1667
    endloop
  endfacet
  facet normal 1 0 2.22045e-16
    outer loop
      vertex -88.5 -7.91342 52.1667
      vertex -88.5 -9.53553 52.1667
      vertex -88.5 -10.6194 52.1667
    endloop
  endfacet
  facet normal 1 0 2.22045e-16
    outer loop
      vertex -88.5 -11 -53.1667
      vertex -88.5 -7.91342 52.1667
      vertex -88.5 -11 52.1667
    endloop
  endfacet
  facet normal 1 0 2.22045e-16
    outer loop
      vertex -88.5 -11 52.1667
      vertex -88.5 -7.91342 52.1667
      vertex -88.5 -10.6194 52.1667
    endloop
  endfacet
  facet normal 1 0 2.22045e-16
    outer loop
      vertex -88.5 -10.6194 -53.1667
      vertex -88.5 -7.91342 52.1667
      vertex -88.5 -11 -53.1667
    endloop
  endfacet
  facet normal 1 0 2.22045e-16
    outer loop
      vertex -88.5 -9.53553 -53.1667
      vertex -88.5 -7.91342 52.1667
      vertex -88.5 -10.6194 -53.1667
    endloop
  endfacet
  facet normal 1 0 2.22045e-16
    outer loop
      vertex -88.5 -7.91342 -53.1667
      vertex -88.5 -7.91342 52.1667
      vertex -88.5 -9.53553 -53.1667
    endloop
  endfacet
  facet normal 1 0 2.22045e-16
    outer loop
      vertex -88.5 -6 -53.1667
      vertex -88.5 -7.91342 52.1667
      vertex -88.5 -7.91342 -53.1667
    endloop
  endfacet
  facet normal 1 0 2.22045e-16
    outer loop
      vertex -88.5 -6 52.1667
      vertex -88.5 -7.91342 52.1667
      vertex -88.5 -6 -53.1667
    endloop
  endfacet
  facet normal 1 0 2.22045e-16
    outer loop
      vertex -96 -6 -53.1667
      vertex -96 6 -53.1667
      vertex -96 6 52.1667
    endloop
  endfacet
  facet normal 1 0 2.22045e-16
    outer loop
      vertex -96 -6 52.1667
      vertex -96 -6 -53.1667
      vertex -96 6 52.1667
    endloop
  endfacet
  facet normal 2.22045e-16 -4.41674e-17 -1
    outer loop
      vertex -103.119 -7.91342 -53.1667
      vertex -103.5 -6 -53.1667
      vertex -88.5 -7.91342 -53.1667
    endloop
  endfacet
  facet normal 2.22045e-16 -4.41674e-17 -1
    outer loop
      vertex -88.5 -7.91342 -53.1667
      vertex -103.5 -6 -53.1667
      vertex -96 -6 -53.1667
    endloop
  endfacet
  facet normal 2.22045e-16 -4.41674e-17 -1
    outer loop
      vertex -88.5 -7.91342 -53.1667
      vertex -96 -6 -53.1667
      vertex -88.5 -6 -53.1667
    endloop
  endfacet
  facet normal 2.22045e-16 0 -1
    outer loop
      vertex -103.5 -6 -53.1667
      vertex -103.5 6 -53.1667
      vertex -96 -6 -53.1667
    endloop
  endfacet
  facet normal 2.22045e-16 0 -1
    outer loop
      vertex -96 -6 -53.1667
      vertex -103.5 6 -53.1667
      vertex -96 6 -53.1667
    endloop
  endfacet
  facet normal -2.22045e-16 -1.48365e-16 1
    outer loop
      vertex -88.5 -7.91342 52.1667
      vertex -93.8806 -7.91342 52.1667
      vertex -94.9645 -9.53553 52.1667
    endloop
  endfacet
  facet normal -2.22045e-16 -1.48365e-16 1
    outer loop
      vertex -88.5 -9.53553 52.1667
      vertex -88.5 -7.91342 52.1667
      vertex -94.9645 -9.53553 52.1667
    endloop
  endfacet
  facet normal -2.22045e-16 -3.32313e-16 1
    outer loop
      vertex -88.5 -9.53553 52.1667
      vertex -94.9645 -9.53553 52.1667
      vertex -96.5866 -10.6194 52.1667
    endloop
  endfacet
  facet normal -2.22045e-16 -3.32313e-16 1
    outer loop
      vertex -88.5 -10.6194 52.1667
      vertex -88.5 -9.53553 52.1667
      vertex -96.5866 -10.6194 52.1667
    endloop
  endfacet
  facet normal -2.22045e-16 -1.11629e-15 1
    outer loop
      vertex -88.5 -10.6194 52.1667
      vertex -96.5866 -10.6194 52.1667
      vertex -98.5 -11 52.1667
    endloop
  endfacet
  facet normal -2.22045e-16 -1.11629e-15 1
    outer loop
      vertex -88.5 -11 52.1667
      vertex -88.5 -10.6194 52.1667
      vertex -98.5 -11 52.1667
    endloop
  endfacet
  facet normal 0 -1 0
    outer loop
      vertex -88.5 -11 52.1667
      vertex -98.5 -11 52.1667
      vertex -98.5 -11 -52.1667
    endloop
  endfacet
  facet normal 0 -1 0
    outer loop
      vertex -88.5 -11 -53.1667
      vertex -88.5 -11 52.1667
      vertex -98.5 -11 -53.1667
    endloop
  endfacet
  facet normal 0 -1 0
    outer loop
      vertex -98.5 -11 -53.1667
      vertex -88.5 -11 52.1667
      vertex -98.5 -11 -52.1667
    endloop
  endfacet
  facet normal -0.19509 -0.980785 -4.33187e-17
    outer loop
      vertex -98.5 -11 -52.1667
      vertex -98.5 -11 52.1667
      vertex -100.413 -10.6194 52.1667
    endloop
  endfacet
  facet normal -0.19509 -0.980785 -4.33187e-17
    outer loop
      vertex -100.413 -10.6194 -52.1667
      vertex -98.5 -11 -52.1667
      vertex -100.413 -10.6194 52.1667
    endloop
  endfacet
  facet normal -0.55557 -0.83147 -1.23361e-16
    outer loop
      vertex -100.413 -10.6194 -52.1667
      vertex -100.413 -10.6194 52.1667
      vertex -102.036 -9.53553 52.1667
    endloop
  endfacet
  facet normal -0.55557 -0.83147 -1.23361e-16
    outer loop
      vertex -102.036 -9.53553 -52.1667
      vertex -100.413 -10.6194 -52.1667
      vertex -102.036 -9.53553 52.1667
    endloop
  endfacet
  facet normal -0.83147 -0.55557 -1.84623e-16
    outer loop
      vertex -102.036 -9.53553 52.1667
      vertex -103.119 -7.91342 52.1667
      vertex -102.036 -9.53553 -52.1667
    endloop
  endfacet
  facet normal -0.83147 -0.55557 -1.84623e-16
    outer loop
      vertex -102.036 -9.53553 -52.1667
      vertex -103.119 -7.91342 52.1667
      vertex -103.119 -7.91342 -52.1667
    endloop
  endfacet
  facet normal -0.980785 -0.19509 -2.17778e-16
    outer loop
      vertex -103.119 -7.91342 52.1667
      vertex -103.5 -6 52.1667
      vertex -103.119 -7.91342 -52.1667
    endloop
  endfacet
  facet normal -0.980785 -0.19509 -2.17778e-16
    outer loop
      vertex -103.119 -7.91342 -52.1667
      vertex -103.5 -6 52.1667
      vertex -103.5 -6 -52.1667
    endloop
  endfacet
  facet normal -1 0 -2.22045e-16
    outer loop
      vertex -103.5 -6 52.1667
      vertex -103.5 6 52.1667
      vertex -103.5 -6 -52.1667
    endloop
  endfacet
  facet normal -1 0 -2.22045e-16
    outer loop
      vertex -103.5 -6 -52.1667
      vertex -103.5 6 52.1667
      vertex -103.5 6 -52.1667
    endloop
  endfacet
  facet normal -0.980785 0.19509 -2.17778e-16
    outer loop
      vertex -103.119 7.91342 52.1667
      vertex -103.119 7.91342 -52.1667
      vertex -103.5 6 52.1667
    endloop
  endfacet
  facet normal -0.980785 0.19509 -2.17778e-16
    outer loop
      vertex -103.5 6 52.1667
      vertex -103.119 7.91342 -52.1667
      vertex -103.5 6 -52.1667
    endloop
  endfacet
  facet normal -0.83147 0.55557 -1.84623e-16
    outer loop
      vertex -102.036 9.53553 52.1667
      vertex -102.036 9.53553 -52.1667
      vertex -103.119 7.91342 52.1667
    endloop
  endfacet
  facet normal -0.83147 0.55557 -1.84623e-16
    outer loop
      vertex -103.119 7.91342 52.1667
      vertex -102.036 9.53553 -52.1667
      vertex -103.119 7.91342 -52.1667
    endloop
  endfacet
  facet normal -0.55557 0.83147 -1.23361e-16
    outer loop
      vertex -100.413 10.6194 52.1667
      vertex -100.413 10.6194 -52.1667
      vertex -102.036 9.53553 52.1667
    endloop
  endfacet
  facet normal -0.55557 0.83147 -1.23361e-16
    outer loop
      vertex -102.036 9.53553 52.1667
      vertex -100.413 10.6194 -52.1667
      vertex -102.036 9.53553 -52.1667
    endloop
  endfacet
  facet normal -0.19509 0.980785 -4.33187e-17
    outer loop
      vertex -98.5 11 52.1667
      vertex -98.5 11 -52.1667
      vertex -100.413 10.6194 52.1667
    endloop
  endfacet
  facet normal -0.19509 0.980785 -4.33187e-17
    outer loop
      vertex -100.413 10.6194 52.1667
      vertex -98.5 11 -52.1667
      vertex -100.413 10.6194 -52.1667
    endloop
  endfacet
  facet normal 0 1 0
    outer loop
      vertex -53.555 11 -1.94986
      vertex 98.5 11 52.1667
      vertex -98.5 11 -52.1667
    endloop
  endfacet
  facet normal 0 1 0
    outer loop
      vertex -98.5 11 -52.1667
      vertex 98.5 11 52.1667
      vertex 98.5 11 51.1667
    endloop
  endfacet
  facet normal 0 1 0
    outer loop
      vertex 75.8019 11 -0.867767
      vertex 98.5 11 51.1667
      vertex 98.5 11 -53.1667
    endloop
  endfacet
  facet normal 0 1 0
    outer loop
      vertex -98.5 11 -52.1667
      vertex 98.5 11 -53.1667
      vertex -98.5 11 -53.1667
    endloop
  endfacet
  facet normal 0 1 0
    outer loop
      vertex -98.5 11 -52.1667
      vertex 98.5 11 51.1667
      vertex 53 11 10.6066
    endloop
  endfacet
  facet normal 0 1 0
    outer loop
      vertex -98.5 11 -52.1667
      vertex 53 11 10.6066
      vertex 43 11 1.03806e-14
    endloop
  endfacet
  facet normal 0 1 0
    outer loop
      vertex -98.5 11 -52.1667
      vertex 43 11 1.03806e-14
      vertex 53 11 -10.6066
    endloop
  endfacet
  facet normal 0 1 0
    outer loop
      vertex -98.5 11 -52.1667
      vertex 53 11 -10.6066
      vertex 98.5 11 -53.1667
    endloop
  endfacet
  facet normal 0 1 0
    outer loop
      vertex 53 11 10.6066
      vertex 98.5 11 51.1667
      vertex 63 11 1.31561e-14
    endloop
  endfacet
  facet normal 0 1 0
    outer loop
      vertex -55.247 11 -1.56366
      vertex -98.5 11 -52.1667
      vertex -56 11 -1.4877e-14
    endloop
  endfacet
  facet normal 0 1 0
    outer loop
      vertex -98.5 11 52.1667
      vertex 98.5 11 52.1667
      vertex -53.555 11 1.94986
    endloop
  endfacet
  facet normal 0 1 0
    outer loop
      vertex -98.5 11 52.1667
      vertex -53.555 11 1.94986
      vertex -55.247 11 1.56366
    endloop
  endfacet
  facet normal 0 1 0
    outer loop
      vertex -98.5 11 52.1667
      vertex -55.247 11 1.56366
      vertex -98.5 11 -52.1667
    endloop
  endfacet
  facet normal 0 1 0
    outer loop
      vertex -55.247 11 1.56366
      vertex -56 11 -1.4877e-14
      vertex -98.5 11 -52.1667
    endloop
  endfacet
  facet normal 0 1 0
    outer loop
      vertex 74.445 11 -1.94986
      vertex 98.5 11 -53.1667
      vertex 72.753 11 -1.56366
    endloop
  endfacet
  facet normal 0 1 0
    outer loop
      vertex -52.1981 11 0.867767
      vertex 98.5 11 52.1667
      vertex -52.1981 11 -0.867767
    endloop
  endfacet
  facet normal 0 1 0
    outer loop
      vertex -52.1981 11 -0.867767
      vertex 98.5 11 52.1667
      vertex -53.555 11 -1.94986
    endloop
  endfacet
  facet normal 0 1 0
    outer loop
      vertex -55.247 11 -1.56366
      vertex -53.555 11 -1.94986
      vertex -98.5 11 -52.1667
    endloop
  endfacet
  facet normal 0 1 0
    outer loop
      vertex -53.555 11 1.94986
      vertex 98.5 11 52.1667
      vertex -52.1981 11 0.867767
    endloop
  endfacet
  facet normal 0 1 0
    outer loop
      vertex 63 11 1.31561e-14
      vertex 98.5 11 51.1667
      vertex 74.445 11 1.94986
    endloop
  endfacet
  facet normal 0 1 0
    outer loop
      vertex 63 11 1.31561e-14
      vertex 74.445 11 1.94986
      vertex 72.753 11 1.56366
    endloop
  endfacet
  facet normal 0 1 0
    outer loop
      vertex 63 11 1.31561e-14
      vertex 72.753 11 1.56366
      vertex 72 11 1.35447e-14
    endloop
  endfacet
  facet normal 0 1 0
    outer loop
      vertex 63 11 1.31561e-14
      vertex 72 11 1.35447e-14
      vertex 72.753 11 -1.56366
    endloop
  endfacet
  facet normal 0 1 0
    outer loop
      vertex 63 11 1.31561e-14
      vertex 72.753 11 -1.56366
      vertex 98.5 11 -53.1667
    endloop
  endfacet
  facet normal 0 1 0
    outer loop
      vertex 75.8019 11 -0.867767
      vertex 98.5 11 -53.1667
      vertex 74.445 11 -1.94986
    endloop
  endfacet
  facet normal 0 1 0
    outer loop
      vertex 75.8019 11 0.867767
      vertex 98.5 11 51.1667
      vertex 75.8019 11 -0.867767
    endloop
  endfacet
  facet normal 0 1 0
    outer loop
      vertex 74.445 11 1.94986
      vertex 98.5 11 51.1667
      vertex 75.8019 11 0.867767
    endloop
  endfacet
  facet normal 0 1 0
    outer loop
      vertex 63 11 1.31561e-14
      vertex 98.5 11 -53.1667
      vertex 53 11 -10.6066
    endloop
  endfacet
  facet normal -2.22045e-16 1.11629e-15 1
    outer loop
      vertex -98.5 11 52.1667
      vertex -96.5866 10.6194 52.1667
      vertex 100.413 10.6194 52.1667
    endloop
  endfacet
  facet normal -2.22045e-16 1.11629e-15 1
    outer loop
      vertex 98.5 11 52.1667
      vertex -98.5 11 52.1667
      vertex 100.413 10.6194 52.1667
    endloop
  endfacet
  facet normal -2.22045e-16 3.32313e-16 1
    outer loop
      vertex -96.5866 10.6194 52.1667
      vertex -94.9645 9.53553 52.1667
      vertex 102.036 9.53553 52.1667
    endloop
  endfacet
  facet normal -2.22045e-16 3.32313e-16 1
    outer loop
      vertex 100.413 10.6194 52.1667
      vertex -96.5866 10.6194 52.1667
      vertex 102.036 9.53553 52.1667
    endloop
  endfacet
  facet normal -2.22045e-16 1.48365e-16 1
    outer loop
      vertex -94.9645 9.53553 52.1667
      vertex -93.8806 7.91342 52.1667
      vertex 103.119 7.91342 52.1667
    endloop
  endfacet
  facet normal -2.22045e-16 1.48365e-16 1
    outer loop
      vertex 102.036 9.53553 52.1667
      vertex -94.9645 9.53553 52.1667
      vertex 103.119 7.91342 52.1667
    endloop
  endfacet
  facet normal -2.22045e-16 4.41674e-17 1
    outer loop
      vertex -93.8806 7.91342 52.1667
      vertex -93.5 6 52.1667
      vertex 96 6 52.1667
    endloop
  endfacet
  facet normal -2.22045e-16 4.41674e-17 1
    outer loop
      vertex 103.119 7.91342 52.1667
      vertex -93.8806 7.91342 52.1667
      vertex 103.5 6 52.1667
    endloop
  endfacet
  facet normal -2.22045e-16 4.41674e-17 1
    outer loop
      vertex 103.5 6 52.1667
      vertex -93.8806 7.91342 52.1667
      vertex 96 6 52.1667
    endloop
  endfacet
  facet normal 0 -1 0
    outer loop
      vertex -52.1981 6 -0.867767
      vertex -96 6 -53.1667
      vertex 93.5 6 -53.1667
    endloop
  endfacet
  facet normal 0 -1 0
    outer loop
      vertex 58 6 -10.6066
      vertex -96 6 52.1667
      vertex 96 6 -53.1667
    endloop
  endfacet
  facet normal 0 -1 0
    outer loop
      vertex 96 6 -53.1667
      vertex -96 6 52.1667
      vertex 93.5 6 -53.1667
    endloop
  endfacet
  facet normal 0 -1 0
    outer loop
      vertex -93.5 6 52.1667
      vertex -96 6 52.1667
      vertex 96 6 52.1667
    endloop
  endfacet
  facet normal 0 -1 0
    outer loop
      vertex -53.555 6 -1.94986
      vertex -55.247 6 -1.56366
      vertex -96 6 -53.1667
    endloop
  endfacet
  facet normal 0 -1 0
    outer loop
      vertex 96 6 52.1667
      vertex -96 6 52.1667
      vertex 58 6 10.6066
    endloop
  endfacet
  facet normal 0 -1 0
    outer loop
      vertex 72.753 6 -1.56366
      vertex 68 6 1.42664e-14
      vertex 96 6 -53.1667
    endloop
  endfacet
  facet normal 0 -1 0
    outer loop
      vertex 96 6 52.1667
      vertex 58 6 10.6066
      vertex 68 6 1.42664e-14
    endloop
  endfacet
  facet normal 0 -1 0
    outer loop
      vertex 48 6 1.14908e-14
      vertex -96 6 52.1667
      vertex 58 6 -10.6066
    endloop
  endfacet
  facet normal 0 -1 0
    outer loop
      vertex 58 6 10.6066
      vertex -96 6 52.1667
      vertex 48 6 1.14908e-14
    endloop
  endfacet
  facet normal 0 -1 0
    outer loop
      vertex -96 6 52.1667
      vertex -53.555 6 1.94986
      vertex 93.5 6 -53.1667
    endloop
  endfacet
  facet normal 0 -1 0
    outer loop
      vertex -53.555 6 1.94986
      vertex -52.1981 6 0.867767
      vertex 93.5 6 -53.1667
    endloop
  endfacet
  facet normal 0 -1 0
    outer loop
      vertex -52.1981 6 0.867767
      vertex -52.1981 6 -0.867767
      vertex 93.5 6 -53.1667
    endloop
  endfacet
  facet normal 0 -1 0
    outer loop
      vertex -53.555 6 -1.94986
      vertex -96 6 -53.1667
      vertex -52.1981 6 -0.867767
    endloop
  endfacet
  facet normal 0 -1 0
    outer loop
      vertex -55.247 6 -1.56366
      vertex -56 6 -1.37668e-14
      vertex -96 6 -53.1667
    endloop
  endfacet
  facet normal 0 -1 0
    outer loop
      vertex 75.8019 6 -0.867767
      vertex 74.445 6 -1.94986
      vertex 96 6 -53.1667
    endloop
  endfacet
  facet normal 0 -1 0
    outer loop
      vertex -96 6 52.1667
      vertex -96 6 -53.1667
      vertex -56 6 -1.37668e-14
    endloop
  endfacet
  facet normal 0 -1 0
    outer loop
      vertex -96 6 52.1667
      vertex -55.247 6 1.56366
      vertex -53.555 6 1.94986
    endloop
  endfacet
  facet normal 0 -1 0
    outer loop
      vertex -96 6 52.1667
      vertex -56 6 -1.37668e-14
      vertex -55.247 6 1.56366
    endloop
  endfacet
  facet normal 0 -1 0
    outer loop
      vertex 72.753 6 -1.56366
      vertex 72 6 1.46549e-14
      vertex 68 6 1.42664e-14
    endloop
  endfacet
  facet normal 0 -1 0
    outer loop
      vertex 96 6 52.1667
      vertex 75.8019 6 0.867767
      vertex 96 6 -53.1667
    endloop
  endfacet
  facet normal 0 -1 0
    outer loop
      vertex 96 6 52.1667
      vertex 74.445 6 1.94986
      vertex 75.8019 6 0.867767
    endloop
  endfacet
  facet normal 0 -1 0
    outer loop
      vertex 75.8019 6 0.867767
      vertex 75.8019 6 -0.867767
      vertex 96 6 -53.1667
    endloop
  endfacet
  facet normal 0 -1 0
    outer loop
      vertex 74.445 6 -1.94986
      vertex 72.753 6 -1.56366
      vertex 96 6 -53.1667
    endloop
  endfacet
  facet normal 0 -1 0
    outer loop
      vertex 72 6 1.46549e-14
      vertex 72.753 6 1.56366
      vertex 68 6 1.42664e-14
    endloop
  endfacet
  facet normal 0 -1 0
    outer loop
      vertex 96 6 52.1667
      vertex 72.753 6 1.56366
      vertex 74.445 6 1.94986
    endloop
  endfacet
  facet normal 0 -1 0
    outer loop
      vertex 96 6 52.1667
      vertex 68 6 1.42664e-14
      vertex 72.753 6 1.56366
    endloop
  endfacet
  facet normal 0 -1 0
    outer loop
      vertex 68 6 1.42664e-14
      vertex 58 6 -10.6066
      vertex 96 6 -53.1667
    endloop
  endfacet
  facet normal 2.22045e-16 -1.48365e-16 -1
    outer loop
      vertex -102.036 -9.53553 -53.1667
      vertex -103.119 -7.91342 -53.1667
      vertex -88.5 -9.53553 -53.1667
    endloop
  endfacet
  facet normal 2.22045e-16 -1.48365e-16 -1
    outer loop
      vertex -88.5 -9.53553 -53.1667
      vertex -103.119 -7.91342 -53.1667
      vertex -88.5 -7.91342 -53.1667
    endloop
  endfacet
  facet normal 2.22045e-16 -3.32313e-16 -1
    outer loop
      vertex -100.413 -10.6194 -53.1667
      vertex -102.036 -9.53553 -53.1667
      vertex -88.5 -10.6194 -53.1667
    endloop
  endfacet
  facet normal 2.22045e-16 -3.32313e-16 -1
    outer loop
      vertex -88.5 -10.6194 -53.1667
      vertex -102.036 -9.53553 -53.1667
      vertex -88.5 -9.53553 -53.1667
    endloop
  endfacet
  facet normal 2.22045e-16 -1.11629e-15 -1
    outer loop
      vertex -98.5 -11 -53.1667
      vertex -100.413 -10.6194 -53.1667
      vertex -88.5 -11 -53.1667
    endloop
  endfacet
  facet normal 2.22045e-16 -1.11629e-15 -1
    outer loop
      vertex -88.5 -11 -53.1667
      vertex -100.413 -10.6194 -53.1667
      vertex -88.5 -10.6194 -53.1667
    endloop
  endfacet
  facet normal 2.22045e-16 4.41674e-17 -1
    outer loop
      vertex -103.119 7.91342 -53.1667
      vertex 93.8806 7.91342 -53.1667
      vertex -103.5 6 -53.1667
    endloop
  endfacet
  facet normal 2.22045e-16 4.41674e-17 -1
    outer loop
      vertex -96 6 -53.1667
      vertex 93.8806 7.91342 -53.1667
      vertex 93.5 6 -53.1667
    endloop
  endfacet
  facet normal 2.22045e-16 4.41674e-17 -1
    outer loop
      vertex -103.5 6 -53.1667
      vertex 93.8806 7.91342 -53.1667
      vertex -96 6 -53.1667
    endloop
  endfacet
  facet normal -1 0 -4.44089e-16
    outer loop
      vertex -103.5 -6 -52.1667
      vertex -103.5 6 -52.1667
      vertex -103.5 -6 -53.1667
    endloop
  endfacet
  facet normal -1 0 -4.44089e-16
    outer loop
      vertex -103.5 -6 -53.1667
      vertex -103.5 6 -52.1667
      vertex -103.5 6 -53.1667
    endloop
  endfacet
  facet normal -0.980785 -0.19509 -4.35556e-16
    outer loop
      vertex -103.119 -7.91342 -52.1667
      vertex -103.5 -6 -52.1667
      vertex -103.119 -7.91342 -53.1667
    endloop
  endfacet
  facet normal -0.980785 -0.19509 -4.35556e-16
    outer loop
      vertex -103.119 -7.91342 -53.1667
      vertex -103.5 -6 -52.1667
      vertex -103.5 -6 -53.1667
    endloop
  endfacet
  facet normal -0.83147 -0.55557 -3.69247e-16
    outer loop
      vertex -102.036 -9.53553 -52.1667
      vertex -103.119 -7.91342 -52.1667
      vertex -102.036 -9.53553 -53.1667
    endloop
  endfacet
  facet normal -0.83147 -0.55557 -3.69247e-16
    outer loop
      vertex -102.036 -9.53553 -53.1667
      vertex -103.119 -7.91342 -52.1667
      vertex -103.119 -7.91342 -53.1667
    endloop
  endfacet
  facet normal -0.980785 0.19509 -4.35556e-16
    outer loop
      vertex -103.119 7.91342 -52.1667
      vertex -103.119 7.91342 -53.1667
      vertex -103.5 6 -52.1667
    endloop
  endfacet
  facet normal -0.980785 0.19509 -4.35556e-16
    outer loop
      vertex -103.5 6 -52.1667
      vertex -103.119 7.91342 -53.1667
      vertex -103.5 6 -53.1667
    endloop
  endfacet
  facet normal -0.19509 -0.980785 -8.66374e-17
    outer loop
      vertex -98.5 -11 -53.1667
      vertex -98.5 -11 -52.1667
      vertex -100.413 -10.6194 -52.1667
    endloop
  endfacet
  facet normal -0.19509 -0.980785 -8.66374e-17
    outer loop
      vertex -100.413 -10.6194 -53.1667
      vertex -98.5 -11 -53.1667
      vertex -100.413 -10.6194 -52.1667
    endloop
  endfacet
  facet normal -0.55557 -0.83147 -2.46723e-16
    outer loop
      vertex -100.413 -10.6194 -53.1667
      vertex -100.413 -10.6194 -52.1667
      vertex -102.036 -9.53553 -52.1667
    endloop
  endfacet
  facet normal -0.55557 -0.83147 -2.46723e-16
    outer loop
      vertex -102.036 -9.53553 -53.1667
      vertex -100.413 -10.6194 -53.1667
      vertex -102.036 -9.53553 -52.1667
    endloop
  endfacet
  facet normal -0.83147 0.55557 -3.69247e-16
    outer loop
      vertex -102.036 9.53553 -52.1667
      vertex -102.036 9.53553 -53.1667
      vertex -103.119 7.91342 -52.1667
    endloop
  endfacet
  facet normal -0.83147 0.55557 -3.69247e-16
    outer loop
      vertex -103.119 7.91342 -52.1667
      vertex -102.036 9.53553 -53.1667
      vertex -103.119 7.91342 -53.1667
    endloop
  endfacet
  facet normal -0.55557 0.83147 -2.46723e-16
    outer loop
      vertex -100.413 10.6194 -52.1667
      vertex -100.413 10.6194 -53.1667
      vertex -102.036 9.53553 -52.1667
    endloop
  endfacet
  facet normal -0.55557 0.83147 -2.46723e-16
    outer loop
      vertex -102.036 9.53553 -52.1667
      vertex -100.413 10.6194 -53.1667
      vertex -102.036 9.53553 -53.1667
    endloop
  endfacet
  facet normal -0.19509 0.980785 -8.66374e-17
    outer loop
      vertex -98.5 11 -52.1667
      vertex -98.5 11 -53.1667
      vertex -100.413 10.6194 -52.1667
    endloop
  endfacet
  facet normal -0.19509 0.980785 -8.66374e-17
    outer loop
      vertex -100.413 10.6194 -52.1667
      vertex -98.5 11 -53.1667
      vertex -100.413 10.6194 -53.1667
    endloop
  endfacet
  facet normal 2.22045e-16 1.11629e-15 -1
    outer loop
      vertex -98.5 11 -53.1667
      vertex 98.5 11 -53.1667
      vertex -100.413 10.6194 -53.1667
    endloop
  endfacet
  facet normal 2.22045e-16 1.11629e-15 -1
    outer loop
      vertex -100.413 10.6194 -53.1667
      vertex 98.5 11 -53.1667
      vertex 96.5866 10.6194 -53.1667
    endloop
  endfacet
  facet normal 0.19509 0.980785 4.33187e-17
    outer loop
      vertex 100.413 10.6194 51.1667
      vertex 100.413 10.6194 -53.1667
      vertex 98.5 11 51.1667
    endloop
  endfacet
  facet normal 0.19509 0.980785 4.33187e-17
    outer loop
      vertex 98.5 11 51.1667
      vertex 100.413 10.6194 -53.1667
      vertex 98.5 11 -53.1667
    endloop
  endfacet
  facet normal 4.44089e-16 0 -1
    outer loop
      vertex 103.5 -6 -53.1667
      vertex 103.119 -7.91342 -53.1667
      vertex 103.5 6 -53.1667
    endloop
  endfacet
  facet normal 4.44089e-16 0 -1
    outer loop
      vertex 103.5 6 -53.1667
      vertex 103.119 -7.91342 -53.1667
      vertex 102.036 -9.53553 -53.1667
    endloop
  endfacet
  facet normal 4.44089e-16 0 -1
    outer loop
      vertex 103.5 6 -53.1667
      vertex 102.036 -9.53553 -53.1667
      vertex 100.413 -10.6194 -53.1667
    endloop
  endfacet
  facet normal 4.44089e-16 0 -1
    outer loop
      vertex 103.5 6 -53.1667
      vertex 100.413 -10.6194 -53.1667
      vertex 98.5 -11 -53.1667
    endloop
  endfacet
  facet normal 4.44089e-16 0 -1
    outer loop
      vertex 103.5 6 -53.1667
      vertex 98.5 -11 -53.1667
      vertex 96.5866 -10.6194 -53.1667
    endloop
  endfacet
  facet normal 4.44089e-16 0 -1
    outer loop
      vertex 103.5 6 -53.1667
      vertex 96.5866 -10.6194 -53.1667
      vertex 94.9645 -9.53553 -53.1667
    endloop
  endfacet
  facet normal 4.44089e-16 0 -1
    outer loop
      vertex 96 -6 -53.1667
      vertex 94.9645 -9.53553 -53.1667
      vertex 93.8806 -7.91342 -53.1667
    endloop
  endfacet
  facet normal 4.44089e-16 0 -1
    outer loop
      vertex 103.5 6 -53.1667
      vertex 94.9645 -9.53553 -53.1667
      vertex 96 -6 -53.1667
    endloop
  endfacet
  facet normal 4.44089e-16 0 -1
    outer loop
      vertex 96 6 -53.1667
      vertex 103.5 6 -53.1667
      vertex 96 -6 -53.1667
    endloop
  endfacet
  facet normal 4.44089e-16 0 -1
    outer loop
      vertex 96 6 -53.1667
      vertex 93.5 6 -53.1667
      vertex 93.8806 7.91342 -53.1667
    endloop
  endfacet
  facet normal 4.44089e-16 0 -1
    outer loop
      vertex 96 6 -53.1667
      vertex 93.8806 7.91342 -53.1667
      vertex 103.5 6 -53.1667
    endloop
  endfacet
  facet normal 4.44089e-16 0 -1
    outer loop
      vertex 103.5 6 -53.1667
      vertex 93.8806 7.91342 -53.1667
      vertex 94.9645 9.53553 -53.1667
    endloop
  endfacet
  facet normal 4.44089e-16 0 -1
    outer loop
      vertex 103.5 6 -53.1667
      vertex 94.9645 9.53553 -53.1667
      vertex 96.5866 10.6194 -53.1667
    endloop
  endfacet
  facet normal 4.44089e-16 0 -1
    outer loop
      vertex 103.5 6 -53.1667
      vertex 96.5866 10.6194 -53.1667
      vertex 98.5 11 -53.1667
    endloop
  endfacet
  facet normal 4.44089e-16 0 -1
    outer loop
      vertex 103.5 6 -53.1667
      vertex 98.5 11 -53.1667
      vertex 100.413 10.6194 -53.1667
    endloop
  endfacet
  facet normal 4.44089e-16 0 -1
    outer loop
      vertex 103.5 6 -53.1667
      vertex 100.413 10.6194 -53.1667
      vertex 102.036 9.53553 -53.1667
    endloop
  endfacet
  facet normal 4.44089e-16 0 -1
    outer loop
      vertex 103.5 6 -53.1667
      vertex 102.036 9.53553 -53.1667
      vertex 103.119 7.91342 -53.1667
    endloop
  endfacet
  facet normal 4.44089e-16 0 -1
    outer loop
      vertex 96 -6 -53.1667
      vertex 93.8806 -7.91342 -53.1667
      vertex 93.5 -6 -53.1667
    endloop
  endfacet
  facet normal 0.19509 0.980785 8.66374e-17
    outer loop
      vertex 100.413 10.6194 52.1667
      vertex 100.413 10.6194 51.1667
      vertex 98.5 11 52.1667
    endloop
  endfacet
  facet normal 0.19509 0.980785 8.66374e-17
    outer loop
      vertex 98.5 11 52.1667
      vertex 100.413 10.6194 51.1667
      vertex 98.5 11 51.1667
    endloop
  endfacet
  facet normal -0.588348 -0.588348 -0.5547
    outer loop
      vertex 53 11 10.6066
      vertex 63 11 1.31561e-14
      vertex 68 6 1.42664e-14
    endloop
  endfacet
  facet normal -0.588348 -0.588348 -0.5547
    outer loop
      vertex 58 6 10.6066
      vertex 53 11 10.6066
      vertex 68 6 1.42664e-14
    endloop
  endfacet
  facet normal 0.588348 0.588348 -0.5547
    outer loop
      vertex 48 6 1.14908e-14
      vertex 43 11 1.03806e-14
      vertex 53 11 10.6066
    endloop
  endfacet
  facet normal 0.588348 0.588348 -0.5547
    outer loop
      vertex 58 6 10.6066
      vertex 48 6 1.14908e-14
      vertex 53 11 10.6066
    endloop
  endfacet
  facet normal -0.588348 -0.588348 0.5547
    outer loop
      vertex 53 11 -10.6066
      vertex 58 6 -10.6066
      vertex 63 11 1.31561e-14
    endloop
  endfacet
  facet normal -0.588348 -0.588348 0.5547
    outer loop
      vertex 63 11 1.31561e-14
      vertex 58 6 -10.6066
      vertex 68 6 1.42664e-14
    endloop
  endfacet
  facet normal 0.588348 0.588348 0.5547
    outer loop
      vertex 53 11 -10.6066
      vertex 43 11 1.03806e-14
      vertex 58 6 -10.6066
    endloop
  endfacet
  facet normal 0.588348 0.588348 0.5547
    outer loop
      vertex 58 6 -10.6066
      vertex 43 11 1.03806e-14
      vertex 48 6 1.14908e-14
    endloop
  endfacet
  facet normal 0.222521 -2.65887e-16 -0.974928
    outer loop
      vertex -55.247 11 1.56366
      vertex -53.555 11 1.94986
      vertex -55.247 6 1.56366
    endloop
  endfacet
  facet normal 0.222521 -2.65887e-16 -0.974928
    outer loop
      vertex -55.247 6 1.56366
      vertex -53.555 11 1.94986
      vertex -53.555 6 1.94986
    endloop
  endfacet
  facet normal -0.62349 -3.51588e-17 -0.781831
    outer loop
      vertex -52.1981 11 0.867767
      vertex -52.1981 6 0.867767
      vertex -53.555 11 1.94986
    endloop
  endfacet
  facet normal -0.62349 -3.51588e-17 -0.781831
    outer loop
      vertex -53.555 11 1.94986
      vertex -52.1981 6 0.867767
      vertex -53.555 6 1.94986
    endloop
  endfacet
  facet normal -1 2.22045e-16 -2.22045e-16
    outer loop
      vertex -52.1981 11 -0.867767
      vertex -52.1981 6 -0.867767
      vertex -52.1981 11 0.867767
    endloop
  endfacet
  facet normal -1 2.22045e-16 -2.22045e-16
    outer loop
      vertex -52.1981 11 0.867767
      vertex -52.1981 6 -0.867767
      vertex -52.1981 6 0.867767
    endloop
  endfacet
  facet normal -0.62349 3.12044e-16 0.781831
    outer loop
      vertex -52.1981 11 -0.867767
      vertex -53.555 11 -1.94986
      vertex -53.555 6 -1.94986
    endloop
  endfacet
  facet normal -0.62349 3.12044e-16 0.781831
    outer loop
      vertex -52.1981 6 -0.867767
      vertex -52.1981 11 -0.867767
      vertex -53.555 6 -1.94986
    endloop
  endfacet
  facet normal 0.222521 1.67068e-16 0.974928
    outer loop
      vertex -53.555 6 -1.94986
      vertex -53.555 11 -1.94986
      vertex -55.247 11 -1.56366
    endloop
  endfacet
  facet normal 0.222521 1.67068e-16 0.974928
    outer loop
      vertex -55.247 6 -1.56366
      vertex -53.555 6 -1.94986
      vertex -55.247 11 -1.56366
    endloop
  endfacet
  facet normal 0.900969 -1.03714e-16 0.433884
    outer loop
      vertex -55.247 6 -1.56366
      vertex -55.247 11 -1.56366
      vertex -56 11 -1.4877e-14
    endloop
  endfacet
  facet normal 0.900969 -1.03714e-16 0.433884
    outer loop
      vertex -56 6 -1.37668e-14
      vertex -55.247 6 -1.56366
      vertex -56 11 -1.4877e-14
    endloop
  endfacet
  facet normal 0.900969 -2.96397e-16 -0.433884
    outer loop
      vertex -56 6 -1.37668e-14
      vertex -56 11 -1.4877e-14
      vertex -55.247 11 1.56366
    endloop
  endfacet
  facet normal 0.900969 -2.96397e-16 -0.433884
    outer loop
      vertex -55.247 6 1.56366
      vertex -56 6 -1.37668e-14
      vertex -55.247 11 1.56366
    endloop
  endfacet
  facet normal -0.62349 -3.51588e-17 -0.781831
    outer loop
      vertex 75.8019 11 0.867767
      vertex 75.8019 6 0.867767
      vertex 74.445 11 1.94986
    endloop
  endfacet
  facet normal -0.62349 -3.51588e-17 -0.781831
    outer loop
      vertex 74.445 11 1.94986
      vertex 75.8019 6 0.867767
      vertex 74.445 6 1.94986
    endloop
  endfacet
  facet normal 0.222521 -2.65887e-16 -0.974928
    outer loop
      vertex 72.753 11 1.56366
      vertex 74.445 11 1.94986
      vertex 72.753 6 1.56366
    endloop
  endfacet
  facet normal 0.222521 -2.65887e-16 -0.974928
    outer loop
      vertex 72.753 6 1.56366
      vertex 74.445 11 1.94986
      vertex 74.445 6 1.94986
    endloop
  endfacet
  facet normal -1 2.22045e-16 -2.22045e-16
    outer loop
      vertex 75.8019 11 -0.867767
      vertex 75.8019 6 -0.867767
      vertex 75.8019 11 0.867767
    endloop
  endfacet
  facet normal -1 2.22045e-16 -2.22045e-16
    outer loop
      vertex 75.8019 11 0.867767
      vertex 75.8019 6 -0.867767
      vertex 75.8019 6 0.867767
    endloop
  endfacet
  facet normal -0.62349 3.12044e-16 0.781831
    outer loop
      vertex 75.8019 11 -0.867767
      vertex 74.445 11 -1.94986
      vertex 74.445 6 -1.94986
    endloop
  endfacet
  facet normal -0.62349 3.12044e-16 0.781831
    outer loop
      vertex 75.8019 6 -0.867767
      vertex 75.8019 11 -0.867767
      vertex 74.445 6 -1.94986
    endloop
  endfacet
  facet normal 0.222521 1.67068e-16 0.974928
    outer loop
      vertex 74.445 6 -1.94986
      vertex 74.445 11 -1.94986
      vertex 72.753 11 -1.56366
    endloop
  endfacet
  facet normal 0.222521 1.67068e-16 0.974928
    outer loop
      vertex 72.753 6 -1.56366
      vertex 74.445 6 -1.94986
      vertex 72.753 11 -1.56366
    endloop
  endfacet
  facet normal 0.900969 -1.03714e-16 0.433884
    outer loop
      vertex 72.753 6 -1.56366
      vertex 72.753 11 -1.56366
      vertex 72 11 1.35447e-14
    endloop
  endfacet
  facet normal 0.900969 -1.03714e-16 0.433884
    outer loop
      vertex 72 6 1.46549e-14
      vertex 72.753 6 -1.56366
      vertex 72 11 1.35447e-14
    endloop
  endfacet
  facet normal 0.900969 -2.96397e-16 -0.433884
    outer loop
      vertex 72 6 1.46549e-14
      vertex 72 11 1.35447e-14
      vertex 72.753 11 1.56366
    endloop
  endfacet
  facet normal 0.900969 -2.96397e-16 -0.433884
    outer loop
      vertex 72.753 6 1.56366
      vertex 72 6 1.46549e-14
      vertex 72.753 11 1.56366
    endloop
  endfacet
  facet normal 0.55557 0.83147 2.46723e-16
    outer loop
      vertex 102.036 9.53553 52.1667
      vertex 102.036 9.53553 51.1667
      vertex 100.413 10.6194 52.1667
    endloop
  endfacet
  facet normal 0.55557 0.83147 2.46723e-16
    outer loop
      vertex 100.413 10.6194 52.1667
      vertex 102.036 9.53553 51.1667
      vertex 100.413 10.6194 51.1667
    endloop
  endfacet
  facet normal 0.83147 0.55557 3.69247e-16
    outer loop
      vertex 102.036 9.53553 52.1667
      vertex 103.119 7.91342 52.1667
      vertex 103.119 7.91342 51.1667
    endloop
  endfacet
  facet normal 0.83147 0.55557 3.69247e-16
    outer loop
      vertex 102.036 9.53553 51.1667
      vertex 102.036 9.53553 52.1667
      vertex 103.119 7.91342 51.1667
    endloop
  endfacet
  facet normal 0.980785 0.19509 4.35556e-16
    outer loop
      vertex 103.119 7.91342 52.1667
      vertex 103.5 6 52.1667
      vertex 103.5 6 51.1667
    endloop
  endfacet
  facet normal 0.980785 0.19509 4.35556e-16
    outer loop
      vertex 103.119 7.91342 51.1667
      vertex 103.119 7.91342 52.1667
      vertex 103.5 6 51.1667
    endloop
  endfacet
  facet normal -2.22045e-16 0 1
    outer loop
      vertex 96 6 52.1667
      vertex 96 -6 52.1667
      vertex 103.5 -6 52.1667
    endloop
  endfacet
  facet normal -2.22045e-16 0 1
    outer loop
      vertex 103.5 6 52.1667
      vertex 96 6 52.1667
      vertex 103.5 -6 52.1667
    endloop
  endfacet
  facet normal 1 0 4.44089e-16
    outer loop
      vertex 103.5 6 52.1667
      vertex 103.5 -6 52.1667
      vertex 103.5 -6 51.1667
    endloop
  endfacet
  facet normal 1 0 4.44089e-16
    outer loop
      vertex 103.5 6 51.1667
      vertex 103.5 6 52.1667
      vertex 103.5 -6 51.1667
    endloop
  endfacet
  facet normal -1 0 -2.22045e-16
    outer loop
      vertex 96 6 -53.1667
      vertex 96 -6 -53.1667
      vertex 96 6 52.1667
    endloop
  endfacet
  facet normal -1 0 -2.22045e-16
    outer loop
      vertex 96 6 52.1667
      vertex 96 -6 -53.1667
      vertex 96 -6 52.1667
    endloop
  endfacet
  facet normal 2.22045e-16 1.48365e-16 -1
    outer loop
      vertex -102.036 9.53553 -53.1667
      vertex 94.9645 9.53553 -53.1667
      vertex -103.119 7.91342 -53.1667
    endloop
  endfacet
  facet normal 2.22045e-16 1.48365e-16 -1
    outer loop
      vertex -103.119 7.91342 -53.1667
      vertex 94.9645 9.53553 -53.1667
      vertex 93.8806 7.91342 -53.1667
    endloop
  endfacet
  facet normal 2.22045e-16 3.32313e-16 -1
    outer loop
      vertex -100.413 10.6194 -53.1667
      vertex 96.5866 10.6194 -53.1667
      vertex -102.036 9.53553 -53.1667
    endloop
  endfacet
  facet normal 2.22045e-16 3.32313e-16 -1
    outer loop
      vertex -102.036 9.53553 -53.1667
      vertex 96.5866 10.6194 -53.1667
      vertex 94.9645 9.53553 -53.1667
    endloop
  endfacet
  facet normal 0.55557 0.83147 1.23361e-16
    outer loop
      vertex 102.036 9.53553 51.1667
      vertex 102.036 9.53553 -53.1667
      vertex 100.413 10.6194 51.1667
    endloop
  endfacet
  facet normal 0.55557 0.83147 1.23361e-16
    outer loop
      vertex 100.413 10.6194 51.1667
      vertex 102.036 9.53553 -53.1667
      vertex 100.413 10.6194 -53.1667
    endloop
  endfacet
  facet normal 1 0 2.22045e-16
    outer loop
      vertex 103.5 6 51.1667
      vertex 103.5 -6 51.1667
      vertex 103.5 -6 -53.1667
    endloop
  endfacet
  facet normal 1 0 2.22045e-16
    outer loop
      vertex 103.5 6 -53.1667
      vertex 103.5 6 51.1667
      vertex 103.5 -6 -53.1667
    endloop
  endfacet
  facet normal 0.980785 0.19509 2.17778e-16
    outer loop
      vertex 103.119 7.91342 51.1667
      vertex 103.5 6 51.1667
      vertex 103.5 6 -53.1667
    endloop
  endfacet
  facet normal 0.980785 0.19509 2.17778e-16
    outer loop
      vertex 103.119 7.91342 -53.1667
      vertex 103.119 7.91342 51.1667
      vertex 103.5 6 -53.1667
    endloop
  endfacet
  facet normal 0.83147 0.55557 1.84623e-16
    outer loop
      vertex 102.036 9.53553 51.1667
      vertex 103.119 7.91342 51.1667
      vertex 103.119 7.91342 -53.1667
    endloop
  endfacet
  facet normal 0.83147 0.55557 1.84623e-16
    outer loop
      vertex 102.036 9.53553 -53.1667
      vertex 102.036 9.53553 51.1667
      vertex 103.119 7.91342 -53.1667
    endloop
  endfacet
  facet normal 0 1 0
    outer loop
      vertex 96 -6 -53.1667
      vertex 93.5 -6 -53.1667
      vertex 96 -6 52.1667
    endloop
  endfacet
  facet normal 0 1 0
    outer loop
      vertex 96 -6 52.1667
      vertex 93.5 -6 -53.1667
      vertex 88.5 -6 -53.1667
    endloop
  endfacet
  facet normal 0 1 0
    outer loop
      vertex 96 -6 52.1667
      vertex 88.5 -6 -53.1667
      vertex 88.5 -6 52.1667
    endloop
  endfacet
  facet normal 2.22045e-16 -4.41674e-17 -1
    outer loop
      vertex 88.5 -7.91342 -53.1667
      vertex 88.5 -6 -53.1667
      vertex 93.8806 -7.91342 -53.1667
    endloop
  endfacet
  facet normal 2.22045e-16 -4.41674e-17 -1
    outer loop
      vertex 93.8806 -7.91342 -53.1667
      vertex 88.5 -6 -53.1667
      vertex 93.5 -6 -53.1667
    endloop
  endfacet
  facet normal 2.22045e-16 -1.48365e-16 -1
    outer loop
      vertex 88.5 -9.53553 -53.1667
      vertex 88.5 -7.91342 -53.1667
      vertex 94.9645 -9.53553 -53.1667
    endloop
  endfacet
  facet normal 2.22045e-16 -1.48365e-16 -1
    outer loop
      vertex 94.9645 -9.53553 -53.1667
      vertex 88.5 -7.91342 -53.1667
      vertex 93.8806 -7.91342 -53.1667
    endloop
  endfacet
  facet normal 2.22045e-16 -3.32313e-16 -1
    outer loop
      vertex 88.5 -10.6194 -53.1667
      vertex 88.5 -9.53553 -53.1667
      vertex 96.5866 -10.6194 -53.1667
    endloop
  endfacet
  facet normal 2.22045e-16 -3.32313e-16 -1
    outer loop
      vertex 96.5866 -10.6194 -53.1667
      vertex 88.5 -9.53553 -53.1667
      vertex 94.9645 -9.53553 -53.1667
    endloop
  endfacet
  facet normal 2.22045e-16 -1.11629e-15 -1
    outer loop
      vertex 88.5 -11 -53.1667
      vertex 88.5 -10.6194 -53.1667
      vertex 98.5 -11 -53.1667
    endloop
  endfacet
  facet normal 2.22045e-16 -1.11629e-15 -1
    outer loop
      vertex 98.5 -11 -53.1667
      vertex 88.5 -10.6194 -53.1667
      vertex 96.5866 -10.6194 -53.1667
    endloop
  endfacet
  facet normal 0 -1 0
    outer loop
      vertex 98.5 -11 52.1667
      vertex 88.5 -11 52.1667
      vertex 88.5 -11 -53.1667
    endloop
  endfacet
  facet normal 0 -1 0
    outer loop
      vertex 98.5 -11 51.1667
      vertex 98.5 -11 52.1667
      vertex 98.5 -11 -53.1667
    endloop
  endfacet
  facet normal 0 -1 0
    outer loop
      vertex 98.5 -11 -53.1667
      vertex 98.5 -11 52.1667
      vertex 88.5 -11 -53.1667
    endloop
  endfacet
  facet normal 0.19509 -0.980785 4.33187e-17
    outer loop
      vertex 100.413 -10.6194 -53.1667
      vertex 100.413 -10.6194 51.1667
      vertex 98.5 -11 51.1667
    endloop
  endfacet
  facet normal 0.19509 -0.980785 4.33187e-17
    outer loop
      vertex 98.5 -11 -53.1667
      vertex 100.413 -10.6194 -53.1667
      vertex 98.5 -11 51.1667
    endloop
  endfacet
  facet normal 0.55557 -0.83147 1.23361e-16
    outer loop
      vertex 102.036 -9.53553 -53.1667
      vertex 102.036 -9.53553 51.1667
      vertex 100.413 -10.6194 51.1667
    endloop
  endfacet
  facet normal 0.55557 -0.83147 1.23361e-16
    outer loop
      vertex 100.413 -10.6194 -53.1667
      vertex 102.036 -9.53553 -53.1667
      vertex 100.413 -10.6194 51.1667
    endloop
  endfacet
  facet normal 0.83147 -0.55557 1.84623e-16
    outer loop
      vertex 103.119 -7.91342 -53.1667
      vertex 103.119 -7.91342 51.1667
      vertex 102.036 -9.53553 51.1667
    endloop
  endfacet
  facet normal 0.83147 -0.55557 1.84623e-16
    outer loop
      vertex 102.036 -9.53553 -53.1667
      vertex 103.119 -7.91342 -53.1667
      vertex 102.036 -9.53553 51.1667
    endloop
  endfacet
  facet normal 0.980785 -0.19509 2.17778e-16
    outer loop
      vertex 103.5 -6 -53.1667
      vertex 103.5 -6 51.1667
      vertex 103.119 -7.91342 51.1667
    endloop
  endfacet
  facet normal 0.980785 -0.19509 2.17778e-16
    outer loop
      vertex 103.119 -7.91342 -53.1667
      vertex 103.5 -6 -53.1667
      vertex 103.119 -7.91342 51.1667
    endloop
  endfacet
  facet normal -2.22045e-16 -4.41674e-17 1
    outer loop
      vertex 96 -6 52.1667
      vertex 88.5 -6 52.1667
      vertex 88.5 -7.91342 52.1667
    endloop
  endfacet
  facet normal -2.22045e-16 -4.41674e-17 1
    outer loop
      vertex 103.5 -6 52.1667
      vertex 96 -6 52.1667
      vertex 103.119 -7.91342 52.1667
    endloop
  endfacet
  facet normal -2.22045e-16 -4.41674e-17 1
    outer loop
      vertex 103.119 -7.91342 52.1667
      vertex 96 -6 52.1667
      vertex 88.5 -7.91342 52.1667
    endloop
  endfacet
  facet normal 0.980785 -0.19509 4.35556e-16
    outer loop
      vertex 103.5 -6 51.1667
      vertex 103.5 -6 52.1667
      vertex 103.119 -7.91342 52.1667
    endloop
  endfacet
  facet normal 0.980785 -0.19509 4.35556e-16
    outer loop
      vertex 103.119 -7.91342 51.1667
      vertex 103.5 -6 51.1667
      vertex 103.119 -7.91342 52.1667
    endloop
  endfacet
  facet normal -1 0 -2.22045e-16
    outer loop
      vertex 88.5 -7.91342 -53.1667
      vertex 88.5 -9.53553 -53.1667
      vertex 88.5 -6 -53.1667
    endloop
  endfacet
  facet normal -1 0 -2.22045e-16
    outer loop
      vertex 88.5 -6 -53.1667
      vertex 88.5 -9.53553 -53.1667
      vertex 88.5 -10.6194 -53.1667
    endloop
  endfacet
  facet normal -1 0 -2.22045e-16
    outer loop
      vertex 88.5 -6 -53.1667
      vertex 88.5 -10.6194 -53.1667
      vertex 88.5 -11 -53.1667
    endloop
  endfacet
  facet normal -1 0 -2.22045e-16
    outer loop
      vertex 88.5 -6 -53.1667
      vertex 88.5 -11 -53.1667
      vertex 88.5 -11 52.1667
    endloop
  endfacet
  facet normal -1 0 -2.22045e-16
    outer loop
      vertex 88.5 -6 -53.1667
      vertex 88.5 -11 52.1667
      vertex 88.5 -10.6194 52.1667
    endloop
  endfacet
  facet normal -1 0 -2.22045e-16
    outer loop
      vertex 88.5 -6 -53.1667
      vertex 88.5 -10.6194 52.1667
      vertex 88.5 -9.53553 52.1667
    endloop
  endfacet
  facet normal -1 0 -2.22045e-16
    outer loop
      vertex 88.5 -6 -53.1667
      vertex 88.5 -9.53553 52.1667
      vertex 88.5 -7.91342 52.1667
    endloop
  endfacet
  facet normal -1 0 -2.22045e-16
    outer loop
      vertex 88.5 -6 -53.1667
      vertex 88.5 -7.91342 52.1667
      vertex 88.5 -6 52.1667
    endloop
  endfacet
  facet normal -2.22045e-16 -1.11629e-15 1
    outer loop
      vertex 100.413 -10.6194 52.1667
      vertex 88.5 -10.6194 52.1667
      vertex 88.5 -11 52.1667
    endloop
  endfacet
  facet normal -2.22045e-16 -1.11629e-15 1
    outer loop
      vertex 98.5 -11 52.1667
      vertex 100.413 -10.6194 52.1667
      vertex 88.5 -11 52.1667
    endloop
  endfacet
  facet normal 0.19509 -0.980785 8.66374e-17
    outer loop
      vertex 100.413 -10.6194 51.1667
      vertex 100.413 -10.6194 52.1667
      vertex 98.5 -11 52.1667
    endloop
  endfacet
  facet normal 0.19509 -0.980785 8.66374e-17
    outer loop
      vertex 98.5 -11 51.1667
      vertex 100.413 -10.6194 51.1667
      vertex 98.5 -11 52.1667
    endloop
  endfacet
  facet normal 0.55557 -0.83147 2.46723e-16
    outer loop
      vertex 102.036 -9.53553 51.1667
      vertex 102.036 -9.53553 52.1667
      vertex 100.413 -10.6194 52.1667
    endloop
  endfacet
  facet normal 0.55557 -0.83147 2.46723e-16
    outer loop
      vertex 100.413 -10.6194 51.1667
      vertex 102.036 -9.53553 51.1667
      vertex 100.413 -10.6194 52.1667
    endloop
  endfacet
  facet normal 0.83147 -0.55557 3.69247e-16
    outer loop
      vertex 103.119 -7.91342 51.1667
      vertex 103.119 -7.91342 52.1667
      vertex 102.036 -9.53553 52.1667
    endloop
  endfacet
  facet normal 0.83147 -0.55557 3.69247e-16
    outer loop
      vertex 102.036 -9.53553 51.1667
      vertex 103.119 -7.91342 51.1667
      vertex 102.036 -9.53553 52.1667
    endloop
  endfacet
  facet normal -2.22045e-16 -1.48365e-16 1
    outer loop
      vertex 103.119 -7.91342 52.1667
      vertex 88.5 -7.91342 52.1667
      vertex 88.5 -9.53553 52.1667
    endloop
  endfacet
  facet normal -2.22045e-16 -1.48365e-16 1
    outer loop
      vertex 102.036 -9.53553 52.1667
      vertex 103.119 -7.91342 52.1667
      vertex 88.5 -9.53553 52.1667
    endloop
  endfacet
  facet normal -2.22045e-16 -3.32313e-16 1
    outer loop
      vertex 102.036 -9.53553 52.1667
      vertex 88.5 -9.53553 52.1667
      vertex 88.5 -10.6194 52.1667
    endloop
  endfacet
  facet normal -2.22045e-16 -3.32313e-16 1
    outer loop
      vertex 100.413 -10.6194 52.1667
      vertex 102.036 -9.53553 52.1667
      vertex 88.5 -10.6194 52.1667
    endloop
  endfacet
endsolid OpenSCAD_Model
